<?xml version="1.0" encoding="utf-8"?>
<!-- Generator: Adobe Illustrator 16.0.3, SVG Export Plug-In . SVG Version: 6.00 Build 0)  -->
<!DOCTYPE svg PUBLIC "-//W3C//DTD SVG 1.1//EN" "http://www.w3.org/Graphics/SVG/1.1/DTD/svg11.dtd">
<svg version="1.1" id="Capa_1" xmlns="http://www.w3.org/2000/svg" xmlns:xlink="http://www.w3.org/1999/xlink" x="0px" y="0px"
	 width="166px" height="185.833px" viewBox="-30.167 0 166 185.833" enable-background="new -30.167 0 166 185.833"
	 xml:space="preserve">
<title>icon1</title>
<desc>Created with Sketch.</desc>
<g>
	<path d="M3.487,151.287c-1.44,0-2.66-0.257-3.66-0.77c-1-0.513-1.86-1.186-2.58-2.02l2.136-2.067
		c0.576,0.667,1.22,1.175,1.932,1.524s1.5,0.524,2.364,0.524c0.976,0,1.712-0.211,2.208-0.632c0.496-0.421,0.744-0.988,0.744-1.702
		c0-0.557-0.16-1.009-0.48-1.358c-0.32-0.349-0.92-0.603-1.8-0.762l-1.584-0.238c-3.344-0.528-5.016-2.154-5.016-4.878
		c0-0.753,0.14-1.434,0.42-2.042c0.28-0.609,0.684-1.13,1.212-1.563c0.528-0.433,1.164-0.765,1.908-0.997s1.588-0.349,2.532-0.349
		c1.264,0,2.368,0.209,3.312,0.626c0.944,0.417,1.752,1.033,2.424,1.851l-2.16,2.045c-0.416-0.508-0.92-0.92-1.512-1.237
		c-0.592-0.317-1.336-0.477-2.232-0.477c-0.912,0-1.596,0.171-2.052,0.512c-0.456,0.342-0.684,0.821-0.684,1.439
		c0,0.635,0.184,1.103,0.552,1.404c0.368,0.301,0.96,0.523,1.776,0.666l1.56,0.288c1.696,0.305,2.948,0.845,3.756,1.622
		c0.808,0.776,1.212,1.861,1.212,3.255c0,0.802-0.14,1.525-0.42,2.175c-0.28,0.648-0.688,1.209-1.224,1.682
		s-1.192,0.837-1.968,1.093C5.387,151.159,4.496,151.287,3.487,151.287z"/>
	<path d="M17.815,151.287c-0.928,0-1.756-0.156-2.484-0.468c-0.728-0.313-1.344-0.752-1.848-1.32
		c-0.504-0.567-0.892-1.256-1.164-2.064c-0.272-0.808-0.408-1.716-0.408-2.724c0-0.992,0.132-1.888,0.396-2.688
		s0.644-1.484,1.14-2.053c0.496-0.567,1.104-1.008,1.824-1.319c0.72-0.313,1.536-0.469,2.448-0.469c0.976,0,1.824,0.168,2.544,0.505
		c0.72,0.336,1.312,0.792,1.776,1.367c0.464,0.576,0.812,1.244,1.044,2.004c0.232,0.761,0.348,1.572,0.348,2.437v1.008h-8.328v0.31
		c0,0.906,0.256,1.633,0.768,2.181c0.512,0.548,1.272,0.822,2.28,0.822c0.768,0,1.396-0.159,1.884-0.477
		c0.488-0.317,0.924-0.723,1.308-1.216l1.656,1.854c-0.512,0.723-1.212,1.288-2.1,1.697
		C20.011,151.082,18.983,151.287,17.815,151.287z M17.767,140.487c-0.816,0-1.464,0.271-1.944,0.815s-0.72,1.248-0.72,2.112v0.192
		h5.136v-0.217c0-0.863-0.212-1.563-0.636-2.1S18.567,140.487,17.767,140.487z"/>
	<path d="M37.447,152.055c0,0.656-0.116,1.236-0.348,1.74s-0.612,0.924-1.14,1.26c-0.528,0.336-1.208,0.592-2.04,0.769
		c-0.832,0.176-1.848,0.264-3.048,0.264c-1.056,0-1.952-0.068-2.688-0.204s-1.34-0.328-1.812-0.576
		c-0.472-0.248-0.812-0.556-1.02-0.924s-0.312-0.784-0.312-1.248c0-0.704,0.196-1.252,0.588-1.644
		c0.392-0.393,0.94-0.645,1.644-0.756v-0.265c-0.512-0.128-0.908-0.38-1.188-0.757s-0.42-0.821-0.42-1.334
		c0-0.32,0.064-0.604,0.192-0.853c0.128-0.249,0.3-0.461,0.516-0.638c0.216-0.176,0.46-0.324,0.732-0.444s0.56-0.212,0.864-0.276
		v-0.097c-0.768-0.352-1.34-0.839-1.716-1.463c-0.376-0.623-0.564-1.351-0.564-2.182c0-1.279,0.44-2.306,1.32-3.081
		c0.879-0.776,2.168-1.164,3.864-1.164c0.384,0,0.764,0.024,1.14,0.072c0.375,0.048,0.724,0.128,1.044,0.24v-0.408
		c0-1.216,0.592-1.824,1.776-1.824h1.944v2.353h-2.664v0.336c0.656,0.368,1.144,0.848,1.464,1.439c0.32,0.593,0.48,1.272,0.48,2.04
		c0,1.265-0.436,2.28-1.308,3.049c-0.872,0.768-2.164,1.151-3.876,1.151c-0.736,0-1.376-0.072-1.92-0.216
		c-0.24,0.112-0.448,0.26-0.624,0.444c-0.176,0.184-0.264,0.412-0.264,0.684c0,0.624,0.544,0.937,1.632,0.937h3.36
		c1.536,0,2.652,0.315,3.348,0.947C37.099,150.06,37.447,150.936,37.447,152.055z M34.567,152.415c0-0.4-0.16-0.712-0.48-0.936
		c-0.32-0.225-0.873-0.337-1.656-0.337h-4.272c-0.432,0.32-0.648,0.752-0.648,1.297c0,0.479,0.2,0.855,0.6,1.128
		c0.399,0.271,1.08,0.407,2.04,0.407h1.536c1.008,0,1.74-0.128,2.196-0.384S34.567,152.943,34.567,152.415z M30.871,144.519
		c1.504,0,2.256-0.636,2.256-1.908v-0.406c0-1.272-0.752-1.909-2.256-1.909s-2.256,0.637-2.256,1.909v0.406
		C28.615,143.883,29.367,144.519,30.871,144.519z"/>
	<path d="M46.615,148.911h-0.12c-0.112,0.32-0.26,0.62-0.444,0.899c-0.184,0.28-0.417,0.532-0.696,0.757
		c-0.28,0.224-0.616,0.399-1.008,0.527c-0.393,0.128-0.844,0.192-1.356,0.192c-1.296,0-2.289-0.424-2.976-1.272
		c-0.688-0.848-1.032-2.056-1.032-3.624v-7.92h3.072v7.608c0,0.864,0.168,1.523,0.504,1.979s0.872,0.685,1.608,0.685
		c0.304,0,0.604-0.04,0.9-0.12s0.556-0.204,0.78-0.372c0.224-0.168,0.408-0.376,0.552-0.624s0.216-0.54,0.216-0.876v-8.28h3.072
		v12.528h-3.072V148.911z"/>
	<path d="M53.239,150.999v-12.528h3.072v2.593h0.12c0.08-0.337,0.203-0.66,0.371-0.973c0.168-0.312,0.389-0.588,0.66-0.828
		c0.272-0.239,0.596-0.432,0.973-0.575c0.375-0.145,0.812-0.217,1.308-0.217h0.673v2.904h-0.961c-1.04,0-1.824,0.152-2.352,0.456
		c-0.528,0.304-0.792,0.8-0.792,1.488v7.68H53.239z"/>
	<path d="M64.207,136.647c-0.641,0-1.1-0.145-1.38-0.433s-0.42-0.655-0.42-1.104v-0.48c0-0.447,0.14-0.815,0.42-1.104
		s0.739-0.433,1.38-0.433c0.624,0,1.08,0.145,1.368,0.433s0.432,0.656,0.432,1.104v0.48c0,0.448-0.144,0.815-0.432,1.104
		S64.831,136.647,64.207,136.647z M62.671,138.471h3.072v12.528h-3.072V138.471z"/>
	<path d="M77.07,148.911h-0.119c-0.225,0.72-0.648,1.296-1.272,1.728c-0.624,0.433-1.353,0.648-2.185,0.648
		c-1.584,0-2.795-0.567-3.636-1.704c-0.84-1.136-1.26-2.76-1.26-4.872c0-2.096,0.42-3.708,1.26-4.836
		c0.841-1.128,2.052-1.692,3.636-1.692c0.832,0,1.561,0.213,2.185,0.637s1.048,0.996,1.272,1.716h0.119v-7.296h3.072v17.76H77.07
		V148.911z M74.479,148.743c0.736,0,1.352-0.176,1.848-0.528c0.496-0.352,0.744-0.855,0.744-1.512v-3.984
		c0-0.607-0.248-1.096-0.744-1.464s-1.111-0.552-1.848-0.552c-0.801,0-1.443,0.268-1.932,0.804s-0.732,1.252-0.732,2.148v2.16
		c0,0.896,0.244,1.607,0.732,2.136S73.678,148.743,74.479,148.743z"/>
	<path d="M92.91,150.999c-0.672,0-1.203-0.195-1.596-0.588c-0.393-0.392-0.637-0.916-0.732-1.572h-0.144
		c-0.208,0.816-0.632,1.428-1.272,1.836c-0.64,0.408-1.432,0.612-2.375,0.612c-1.281,0-2.265-0.335-2.953-1.005
		c-0.688-0.67-1.031-1.563-1.031-2.68c0-1.291,0.464-2.253,1.392-2.883s2.248-0.944,3.96-0.944h2.137v-0.912
		c0-0.704-0.185-1.248-0.553-1.632c-0.368-0.385-0.96-0.576-1.775-0.576c-0.721,0-1.301,0.155-1.74,0.468
		c-0.44,0.312-0.813,0.684-1.116,1.116l-1.823-1.642c0.463-0.725,1.08-1.308,1.848-1.751c0.768-0.442,1.783-0.664,3.048-0.664
		c1.696,0,2.983,0.384,3.864,1.149c0.879,0.767,1.32,1.868,1.32,3.305v5.891h1.247v2.472H92.91z M87.822,149.055
		c0.688,0,1.271-0.15,1.752-0.452s0.721-0.747,0.721-1.335v-1.645h-1.969c-1.6,0-2.4,0.509-2.4,1.525v0.405
		c0,0.509,0.164,0.886,0.492,1.132S87.215,149.055,87.822,149.055z"/>
	<path d="M104.887,148.911h-0.12c-0.225,0.72-0.647,1.296-1.272,1.728c-0.623,0.433-1.352,0.648-2.184,0.648
		c-1.584,0-2.796-0.567-3.637-1.704c-0.84-1.136-1.26-2.76-1.26-4.872c0-2.096,0.42-3.708,1.26-4.836
		c0.841-1.128,2.053-1.692,3.637-1.692c0.832,0,1.561,0.213,2.184,0.637c0.625,0.424,1.048,0.996,1.272,1.716h0.12v-7.296h3.072
		v17.76h-3.072V148.911z M102.295,148.743c0.735,0,1.352-0.176,1.848-0.528c0.496-0.352,0.744-0.855,0.744-1.512v-3.984
		c0-0.607-0.248-1.096-0.744-1.464s-1.112-0.552-1.848-0.552c-0.801,0-1.444,0.268-1.933,0.804s-0.731,1.252-0.731,2.148v2.16
		c0,0.896,0.243,1.607,0.731,2.136S101.494,148.743,102.295,148.743z"/>
	<path d="M-4.804,165.447c-0.64,0-1.1-0.145-1.38-0.433c-0.28-0.288-0.42-0.655-0.42-1.104v-0.48c0-0.447,0.14-0.815,0.42-1.104
		c0.28-0.288,0.74-0.433,1.38-0.433c0.624,0,1.08,0.145,1.368,0.433c0.288,0.288,0.432,0.656,0.432,1.104v0.48
		c0,0.448-0.144,0.815-0.432,1.104C-3.724,165.303-4.18,165.447-4.804,165.447z M-6.34,167.271h3.072v12.528H-6.34V167.271z"/>
	<path d="M0.283,179.799v-12.528h3.072v2.088h0.12c0.256-0.672,0.66-1.235,1.212-1.691c0.552-0.456,1.316-0.685,2.292-0.685
		c1.296,0,2.288,0.425,2.976,1.272c0.688,0.849,1.032,2.056,1.032,3.624v7.92H7.916v-7.608c0-0.896-0.16-1.567-0.48-2.016
		c-0.32-0.447-0.849-0.672-1.584-0.672c-0.32,0-0.628,0.044-0.924,0.132c-0.296,0.088-0.56,0.216-0.792,0.384
		s-0.42,0.376-0.564,0.624s-0.216,0.54-0.216,0.876v8.28H0.283z"/>
	<path d="M15.02,169.695h-1.848v-2.425h1.848v-1.8c0-1.104,0.292-1.952,0.876-2.544s1.444-0.888,2.58-0.888h2.184v2.472h-2.568v2.76
		h2.568v2.425h-2.568v10.104H15.02V169.695z"/>
	<path d="M27.667,180.087c-0.896,0-1.7-0.152-2.412-0.456s-1.32-0.744-1.824-1.32c-0.504-0.576-0.892-1.268-1.164-2.076
		c-0.272-0.808-0.408-1.716-0.408-2.724s0.136-1.912,0.408-2.712c0.271-0.8,0.66-1.483,1.164-2.052
		c0.504-0.568,1.112-1.004,1.824-1.309c0.712-0.304,1.516-0.456,2.412-0.456c0.896,0,1.704,0.152,2.424,0.456
		c0.72,0.305,1.332,0.74,1.836,1.309s0.892,1.252,1.164,2.052c0.272,0.8,0.408,1.704,0.408,2.712s-0.136,1.916-0.408,2.724
		c-0.272,0.809-0.66,1.5-1.164,2.076s-1.116,1.017-1.836,1.32C29.372,179.935,28.563,180.087,27.667,180.087z M27.667,177.615
		c0.816,0,1.456-0.248,1.92-0.744c0.464-0.496,0.696-1.225,0.696-2.185v-2.328c0-0.943-0.232-1.663-0.696-2.159
		c-0.464-0.496-1.104-0.744-1.92-0.744c-0.8,0-1.432,0.248-1.896,0.744c-0.464,0.496-0.696,1.216-0.696,2.159v2.328
		c0,0.96,0.232,1.688,0.696,2.185C26.235,177.367,26.867,177.615,27.667,177.615z"/>
	<path d="M36.211,179.799v-12.528h3.072v2.593h0.12c0.08-0.337,0.204-0.66,0.372-0.973c0.168-0.312,0.388-0.588,0.66-0.828
		c0.272-0.239,0.596-0.432,0.972-0.575c0.375-0.145,0.812-0.217,1.308-0.217h0.672v2.904h-0.96c-1.041,0-1.824,0.152-2.352,0.456
		c-0.528,0.304-0.792,0.8-0.792,1.488v7.68H36.211z"/>
	<path d="M45.643,179.799v-12.528h3.072v2.088h0.12c0.24-0.655,0.624-1.215,1.152-1.68c0.528-0.464,1.264-0.696,2.208-0.696
		c0.864,0,1.608,0.209,2.232,0.624c0.624,0.417,1.088,1.049,1.392,1.896h0.049c0.223-0.704,0.668-1.3,1.332-1.788
		c0.663-0.488,1.5-0.732,2.508-0.732c1.231,0,2.18,0.425,2.844,1.272c0.664,0.849,0.996,2.056,0.996,3.624v7.92h-3.072v-7.608
		c0-1.791-0.672-2.688-2.016-2.688c-0.305,0-0.597,0.044-0.877,0.132c-0.279,0.088-0.527,0.216-0.743,0.384
		s-0.388,0.376-0.517,0.624c-0.128,0.248-0.191,0.54-0.191,0.876v8.28h-3.072v-7.608c0-1.791-0.672-2.688-2.016-2.688
		c-0.288,0-0.572,0.044-0.852,0.132c-0.28,0.088-0.528,0.216-0.744,0.384c-0.216,0.168-0.392,0.376-0.528,0.624
		c-0.136,0.248-0.204,0.54-0.204,0.876v8.28H45.643z"/>
	<path d="M76.17,179.799c-0.672,0-1.203-0.195-1.596-0.588c-0.393-0.392-0.637-0.916-0.732-1.572h-0.144
		c-0.208,0.816-0.632,1.428-1.272,1.836c-0.64,0.408-1.432,0.612-2.375,0.612c-1.281,0-2.265-0.335-2.953-1.005
		c-0.688-0.67-1.031-1.563-1.031-2.68c0-1.291,0.464-2.253,1.392-2.883s2.248-0.944,3.96-0.944h2.137v-0.912
		c0-0.704-0.185-1.248-0.553-1.632c-0.368-0.385-0.96-0.576-1.775-0.576c-0.721,0-1.301,0.155-1.74,0.468
		c-0.44,0.312-0.813,0.684-1.116,1.116l-1.823-1.642c0.463-0.725,1.08-1.308,1.848-1.751c0.768-0.442,1.783-0.664,3.048-0.664
		c1.696,0,2.983,0.384,3.864,1.149c0.879,0.767,1.32,1.868,1.32,3.305v5.891h1.247v2.472H76.17z M71.082,177.854
		c0.688,0,1.271-0.15,1.752-0.452s0.721-0.747,0.721-1.335v-1.645h-1.969c-1.6,0-2.4,0.509-2.4,1.525v0.405
		c0,0.509,0.164,0.886,0.492,1.132S70.475,177.854,71.082,177.854z M71.826,165.854l-1.848-0.888l2.279-4.488l2.592,1.272
		L71.826,165.854z"/>
	<path d="M84.186,179.799c-1.056,0-1.859-0.275-2.412-0.826c-0.551-0.55-0.827-1.337-0.827-2.358v-6.871h-1.849v-2.473h0.961
		c0.463,0,0.779-0.107,0.947-0.323c0.168-0.217,0.252-0.54,0.252-0.973v-2.136h2.76v3.432h2.568v2.473h-2.568v7.584h2.377v2.472
		H84.186z"/>
	<path d="M90.786,165.447c-0.64,0-1.101-0.145-1.38-0.433c-0.28-0.288-0.42-0.655-0.42-1.104v-0.48c0-0.447,0.14-0.815,0.42-1.104
		c0.279-0.288,0.74-0.433,1.38-0.433c0.624,0,1.08,0.145,1.368,0.433c0.287,0.288,0.432,0.656,0.432,1.104v0.48
		c0,0.448-0.145,0.815-0.432,1.104C91.866,165.303,91.41,165.447,90.786,165.447z M89.25,167.271h3.072v12.528H89.25V167.271z"/>
	<path d="M100.818,180.087c-0.929,0-1.753-0.152-2.473-0.456c-0.721-0.304-1.324-0.744-1.813-1.32s-0.859-1.268-1.115-2.076
		c-0.256-0.808-0.385-1.716-0.385-2.724s0.129-1.912,0.385-2.712s0.627-1.483,1.115-2.052s1.092-1.004,1.813-1.309
		c0.72-0.304,1.544-0.456,2.473-0.456c1.264,0,2.307,0.28,3.131,0.841c0.824,0.56,1.42,1.336,1.789,2.327l-2.521,1.129
		c-0.144-0.528-0.412-0.964-0.804-1.309c-0.393-0.344-0.924-0.516-1.596-0.516c-0.865,0-1.509,0.272-1.933,0.815
		c-0.425,0.545-0.636,1.257-0.636,2.137v2.279c0,0.881,0.211,1.589,0.636,2.124c0.424,0.536,1.067,0.805,1.933,0.805
		c0.734,0,1.303-0.188,1.703-0.564s0.712-0.844,0.936-1.404l2.353,1.128c-0.416,1.104-1.048,1.933-1.896,2.484
		C103.065,179.811,102.033,180.087,100.818,180.087z"/>
	<path d="M117.401,179.799c-0.673,0-1.204-0.195-1.597-0.588c-0.392-0.392-0.636-0.916-0.731-1.572h-0.144
		c-0.209,0.816-0.633,1.428-1.272,1.836s-1.433,0.612-2.376,0.612c-1.28,0-2.264-0.335-2.952-1.005s-1.032-1.563-1.032-2.68
		c0-1.291,0.465-2.253,1.393-2.883s2.248-0.944,3.96-0.944h2.136v-0.912c0-0.704-0.184-1.248-0.552-1.632
		c-0.368-0.385-0.96-0.576-1.776-0.576c-0.72,0-1.3,0.155-1.74,0.468c-0.439,0.312-0.813,0.684-1.115,1.116l-1.824-1.642
		c0.464-0.725,1.08-1.308,1.848-1.751c0.768-0.442,1.784-0.664,3.049-0.664c1.695,0,2.983,0.384,3.863,1.149
		c0.88,0.767,1.32,1.868,1.32,3.305v5.891h1.248v2.472H117.401z M112.313,177.854c0.688,0,1.272-0.15,1.752-0.452
		c0.48-0.302,0.721-0.747,0.721-1.335v-1.645h-1.968c-1.601,0-2.4,0.509-2.4,1.525v0.405c0,0.509,0.164,0.886,0.492,1.132
		C111.236,177.731,111.705,177.854,112.313,177.854z"/>
</g>
<g id="Landing-podcast_1_">
	<g id="Landing-podcast_Mobile_1_" transform="translate(-108.000000, -4783.000000)">
		<g id="topicos_1_" transform="translate(0.000000, 4004.000000)">
			<g id="_x34_" transform="translate(0.000000, 766.000000)">
				<g id="icon4" transform="translate(108.000000, 13.000000)">
					<path id="Shape_3_" fill="#0000EC" d="M95.075,34.822c0.456,0,0.895-0.181,1.217-0.505l6.893-6.891
						c0.323-0.322,0.504-0.762,0.504-1.218V19c2-0.713,3.446-2.608,3.446-4.852c0-2.85-2.319-5.168-5.169-5.168
						s-5.168,2.319-5.168,5.168c0,2.243,1.445,4.138,3.445,4.852v6.496l-5.882,5.882h-20.88c-1.25-0.774-2.53-1.494-3.859-2.095
						c-0.125-0.057-0.258-0.083-0.391-0.107v-7.422l5.882-5.882h3.05c0.713,2,2.608,3.445,4.852,3.445
						c2.85,0,5.168-2.319,5.168-5.168s-2.318-5.168-5.168-5.168c-2.243,0-4.139,1.445-4.852,3.446h-3.764
						c-0.456,0-0.895,0.181-1.217,0.505l-6.893,6.891c-0.323,0.322-0.504,0.762-0.504,1.218v10.63l-1.139,1.216
						c-1.066-0.354-2.156-0.644-3.26-0.872l-1.006-4.311c-0.168-0.718-0.775-1.251-1.51-1.323c-0.579-0.057-1.135-0.057-1.701-0.084
						V19c2.001-0.713,3.446-2.608,3.446-4.852c0-2.85-2.319-5.168-5.169-5.168s-5.168,2.319-5.168,5.168
						c0,2.243,1.445,4.138,3.445,4.852v7.296c-0.564,0.029-1.123,0.028-1.7,0.084c-0.733,0.072-1.343,0.605-1.509,1.323
						l-1.007,4.311c-1.103,0.228-2.192,0.518-3.258,0.872l-1.141-1.218V21.04c0-0.457-0.181-0.896-0.505-1.218l-6.891-6.891
						c-0.322-0.324-0.762-0.505-1.218-0.505h-3.763c-0.713-2-2.608-3.446-4.852-3.446c-2.85,0-5.168,2.319-5.168,5.168
						s2.319,5.168,5.168,5.168c2.243,0,4.138-1.445,4.852-3.445h3.049l5.881,5.882v7.422c-0.131,0.026-0.263,0.05-0.391,0.107
						c-1.328,0.601-2.606,1.321-3.859,2.095H16.536l-5.882-5.882V19c2-0.713,3.446-2.608,3.446-4.852
						c0-2.85-2.319-5.168-5.169-5.168s-5.168,2.319-5.168,5.168c0,2.243,1.445,4.138,3.446,4.852v7.208
						c0,0.457,0.181,0.896,0.505,1.218l6.891,6.891c0.322,0.324,0.762,0.505,1.218,0.505h18.946l1.206,3.97
						c-0.844,0.753-1.649,1.556-2.4,2.4l-4.176-1.271c-0.703-0.215-1.468,0.042-1.898,0.642c-0.667,0.926-1.289,1.887-1.863,2.873
						H18.95c-0.711-2-2.606-3.445-4.85-3.445c-2.85,0-5.169,2.318-5.169,5.168s2.319,5.169,5.169,5.169
						c2.243,0,4.138-1.445,4.852-3.446h5.006c-0.108,0.57,0.062,1.167,0.5,1.577l3.211,3.008c-0.353,1.067-0.644,2.155-0.872,3.26
						l-4.311,1.007c-0.718,0.166-1.251,0.775-1.323,1.509c-0.057,0.579-0.057,1.132-0.086,1.7h-7.295
						c-0.713-2-2.608-3.445-4.852-3.445c-2.85,0-5.168,2.318-5.168,5.168s2.319,5.169,5.168,5.169c2.243,0,4.139-1.445,4.852-3.446
						h7.296c0.029,0.569,0.029,1.122,0.086,1.701c0.072,0.734,0.604,1.342,1.323,1.51l4.311,1.006
						c0.227,1.103,0.519,2.193,0.872,3.258l-3.211,3.008c-0.438,0.41-0.608,1.006-0.5,1.578h-5.007c-0.715-2-2.61-3.445-4.853-3.445
						c-2.85,0-5.169,2.318-5.169,5.168S11.25,81.34,14.1,81.34c2.243,0,4.138-1.445,4.852-3.446h6.688
						c0.572,0.986,1.192,1.945,1.861,2.873c0.431,0.598,1.188,0.855,1.9,0.641l4.176-1.268c0.753,0.846,1.556,1.648,2.4,2.399
						l-1.209,3.97H15.823c-0.457,0-0.896,0.181-1.218,0.504l-6.891,6.893c-0.324,0.321-0.505,0.761-0.505,1.217v7.209
						c-2,0.713-3.446,2.608-3.446,4.852c0,2.85,2.319,5.169,5.168,5.169s5.169-2.319,5.169-5.169c0-2.243-1.446-4.139-3.446-4.852
						v-6.495l5.882-5.882h20.879c1.25,0.771,2.529,1.494,3.859,2.096c0.126,0.057,0.259,0.082,0.391,0.107v7.421l-5.881,5.882
						h-3.049c-0.713-2-2.608-3.445-4.852-3.445c-2.85,0-5.168,2.318-5.168,5.168s2.319,5.169,5.168,5.169
						c2.243,0,4.138-1.446,4.852-3.446h3.763c0.457,0,0.896-0.181,1.218-0.504l6.891-6.893c0.324-0.322,0.505-0.761,0.505-1.217
						V89.661l1.14-1.217c1.066,0.354,2.154,0.645,3.259,0.872l1.007,4.312c0.166,0.718,0.775,1.25,1.509,1.322
						c0.579,0.057,1.132,0.057,1.7,0.086v7.297c-2,0.713-3.445,2.608-3.445,4.852c0,2.85,2.318,5.168,5.168,5.168
						s5.169-2.318,5.169-5.168c0-2.243-1.445-4.139-3.446-4.852v-7.297c0.569-0.029,1.124-0.029,1.701-0.086
						c0.734-0.072,1.342-0.604,1.51-1.322l1.006-4.312c1.102-0.228,2.193-0.519,3.258-0.872l1.141,1.219v10.629
						c0,0.456,0.181,0.895,0.504,1.217l6.893,6.893c0.322,0.323,0.761,0.504,1.217,0.504h3.764c0.713,2,2.608,3.446,4.852,3.446
						c2.85,0,5.168-2.319,5.168-5.169s-2.318-5.168-5.168-5.168c-2.243,0-4.139,1.445-4.852,3.445h-3.05l-5.882-5.882v-7.421
						c0.131-0.025,0.264-0.049,0.391-0.106c1.329-0.601,2.607-1.321,3.859-2.095h20.88l5.882,5.88v6.495
						c-2,0.713-3.445,2.608-3.445,4.852c0,2.85,2.318,5.169,5.168,5.169s5.169-2.319,5.169-5.169c0-2.243-1.446-4.139-3.446-4.852
						v-7.209c0-0.456-0.181-0.896-0.504-1.217l-6.893-6.893c-0.322-0.323-0.761-0.504-1.217-0.504H76.128l-1.205-3.97
						c0.846-0.753,1.648-1.556,2.399-2.399l4.175,1.27c0.704,0.213,1.469-0.043,1.898-0.642c0.668-0.927,1.29-1.888,1.862-2.874
						h6.688c0.713,2.001,2.607,3.446,4.852,3.446c2.85,0,5.168-2.319,5.168-5.169s-2.318-5.168-5.168-5.168
						c-2.244,0-4.139,1.445-4.852,3.445h-5.008c0.109-0.57-0.062-1.166-0.499-1.576l-3.212-3.008
						c0.354-1.066,0.645-2.156,0.873-3.26l4.311-1.006c0.718-0.168,1.25-0.775,1.322-1.51c0.057-0.579,0.057-1.132,0.086-1.701
						h7.297c0.713,2.001,2.608,3.446,4.852,3.446c2.85,0,5.168-2.319,5.168-5.169s-2.318-5.168-5.168-5.168
						c-2.243,0-4.139,1.445-4.852,3.445h-7.297c-0.029-0.568-0.029-1.123-0.086-1.7c-0.072-0.733-0.604-1.343-1.322-1.509
						l-4.311-1.007c-0.229-1.103-0.52-2.192-0.873-3.258l3.212-3.009c0.438-0.409,0.608-1.006,0.499-1.578h5.008
						c0.713,2.001,2.607,3.446,4.852,3.446c2.85,0,5.168-2.319,5.168-5.169s-2.318-5.168-5.168-5.168
						c-2.244,0-4.139,1.445-4.852,3.445h-6.688c-0.572-0.985-1.192-1.945-1.86-2.871c-0.432-0.599-1.194-0.857-1.9-0.642
						l-4.177,1.269c-0.753-0.847-1.556-1.649-2.399-2.4l1.205-3.97H95.075z M101.966,12.425c0.949,0,1.723,0.773,1.723,1.723
						c0,0.95-0.773,1.723-1.723,1.723s-1.723-0.773-1.723-1.723C100.243,13.199,101.017,12.425,101.966,12.425z M83.015,12.425
						c0.949,0,1.723,0.773,1.723,1.723c0,0.95-0.773,1.723-1.723,1.723s-1.723-0.773-1.723-1.723
						C81.292,13.199,82.065,12.425,83.015,12.425z M27.883,15.871c-0.949,0-1.723-0.773-1.723-1.723
						c0-0.949,0.773-1.723,1.723-1.723s1.723,0.773,1.723,1.723C29.605,15.098,28.832,15.871,27.883,15.871z M8.931,12.425
						c0.949,0,1.723,0.773,1.723,1.723c0,0.95-0.774,1.723-1.723,1.723s-1.723-0.773-1.723-1.723
						C7.208,13.199,7.982,12.425,8.931,12.425z M14.1,46.882c-0.95,0-1.723-0.773-1.723-1.723s0.773-1.723,1.723-1.723
						c0.949,0,1.723,0.773,1.723,1.723S15.049,46.882,14.1,46.882z M14.1,77.894c-0.95,0-1.723-0.773-1.723-1.723
						s0.773-1.723,1.723-1.723c0.949,0,1.723,0.773,1.723,1.723S15.049,77.894,14.1,77.894z M8.931,108.905
						c-0.949,0-1.723-0.773-1.723-1.723s0.773-1.723,1.723-1.723s1.723,0.773,1.723,1.723S9.88,108.905,8.931,108.905z
						 M27.883,108.905c-0.949,0-1.723-0.773-1.723-1.723s0.773-1.723,1.723-1.723s1.723,0.773,1.723,1.723
						S28.832,108.905,27.883,108.905z M83.015,105.46c0.949,0,1.723,0.773,1.723,1.723s-0.773,1.723-1.723,1.723
						s-1.723-0.773-1.723-1.723S82.065,105.46,83.015,105.46z M101.966,108.905c-0.949,0-1.723-0.773-1.723-1.723
						s0.773-1.723,1.723-1.723s1.723,0.773,1.723,1.723S102.915,108.905,101.966,108.905z M96.798,74.448
						c0.949,0,1.723,0.773,1.723,1.723s-0.773,1.723-1.723,1.723s-1.723-0.773-1.723-1.723S95.849,74.448,96.798,74.448z
						 M96.798,43.437c0.949,0,1.723,0.773,1.723,1.723s-0.773,1.723-1.723,1.723s-1.723-0.773-1.723-1.723
						S95.849,43.437,96.798,43.437z M55.448,12.425c0.949,0,1.723,0.773,1.723,1.723c0,0.95-0.773,1.723-1.723,1.723
						s-1.723-0.773-1.723-1.723C53.726,13.199,54.499,12.425,55.448,12.425z M8.931,62.388c-0.949,0-1.723-0.773-1.723-1.723
						s0.773-1.723,1.723-1.723s1.723,0.773,1.723,1.723S9.88,62.388,8.931,62.388z M55.448,108.905
						c-0.949,0-1.723-0.773-1.723-1.723s0.773-1.723,1.723-1.723s1.723,0.773,1.723,1.723S56.397,108.905,55.448,108.905z
						 M101.966,58.942c0.949,0,1.723,0.773,1.723,1.723s-0.773,1.723-1.723,1.723s-1.723-0.773-1.723-1.723
						S101.017,58.942,101.966,58.942z M75.417,44.263c0.441,0.537,1.162,0.754,1.831,0.553l4.05-1.23
						c0.688,1.041,1.313,2.117,1.868,3.222l-3.113,2.915c-0.509,0.476-0.681,1.211-0.435,1.864c0.586,1.56,1.021,3.188,1.296,4.845
						c0.114,0.686,0.629,1.236,1.308,1.396l4.182,0.976c0.038,0.634,0.057,1.256,0.057,1.863c0,0.608-0.019,1.23-0.059,1.864
						l-4.182,0.976c-0.678,0.158-1.193,0.709-1.307,1.396c-0.274,1.655-0.712,3.285-1.296,4.845
						c-0.245,0.65-0.073,1.389,0.435,1.863l3.113,2.916c-0.557,1.107-1.183,2.185-1.868,3.222l-4.049-1.231
						c-0.667-0.202-1.389,0.015-1.831,0.553c-1.066,1.295-2.264,2.494-3.564,3.564c-0.538,0.442-0.757,1.164-0.554,1.831l1.23,4.051
						c-1.041,0.688-2.118,1.313-3.222,1.868l-2.916-3.113c-0.477-0.509-1.216-0.682-1.863-0.435
						c-1.56,0.585-3.189,1.021-4.845,1.296c-0.687,0.113-1.237,0.629-1.396,1.307l-0.975,4.182c-1.268,0.078-2.463,0.078-3.729,0
						l-0.976-4.182c-0.159-0.678-0.71-1.193-1.396-1.307c-1.656-0.274-3.285-0.712-4.845-1.296
						c-0.655-0.247-1.389-0.073-1.864,0.435l-2.916,3.113c-1.107-0.556-2.184-1.181-3.223-1.868l1.232-4.049
						c0.203-0.667-0.016-1.391-0.553-1.831c-1.296-1.066-2.496-2.264-3.565-3.564c-0.442-0.54-1.166-0.759-1.831-0.554l-4.051,1.23
						c-0.688-1.041-1.313-2.118-1.868-3.222l3.113-2.916c0.508-0.475,0.681-1.211,0.435-1.863c-0.586-1.56-1.022-3.189-1.296-4.845
						c-0.114-0.687-0.629-1.237-1.308-1.396l-4.181-0.976c-0.038-0.634-0.057-1.256-0.057-1.864c0-0.607,0.019-1.229,0.059-1.863
						l4.182-0.976c0.679-0.159,1.194-0.71,1.308-1.396c0.274-1.656,0.711-3.285,1.295-4.845c0.245-0.651,0.072-1.389-0.434-1.864
						l-3.113-2.915c0.557-1.108,1.182-2.185,1.868-3.222l4.049,1.23c0.668,0.205,1.389-0.014,1.831-0.553
						c1.066-1.297,2.266-2.495,3.565-3.565c0.537-0.442,0.756-1.165,0.553-1.831l-1.23-4.051c1.041-0.688,2.117-1.313,3.222-1.867
						l2.915,3.113c0.476,0.506,1.213,0.679,1.864,0.434c1.56-0.586,3.188-1.021,4.845-1.295c0.686-0.114,1.236-0.629,1.396-1.309
						l0.976-4.181c1.266-0.078,2.461-0.078,3.729,0l0.975,4.181c0.158,0.68,0.709,1.194,1.396,1.309
						c1.655,0.273,3.285,0.711,4.845,1.295c0.65,0.243,1.387,0.072,1.863-0.434l2.918-3.113c1.105,0.555,2.182,1.18,3.221,1.867
						l-1.231,4.049c-0.203,0.667,0.016,1.391,0.554,1.832C73.147,41.764,74.347,42.963,75.417,44.263z"/>
					<path id="Shape_2_" fill="#00F3BB" d="M55.448,41.714c-7.706,0-15.506,2.367-15.506,6.892v8.614v8.614v8.614
						c0,4.524,7.8,6.892,15.506,6.892c7.707,0,15.506-2.367,15.506-6.892v-8.614V57.22v-8.614
						C70.954,44.081,63.155,41.714,55.448,41.714z M55.448,77.894c-7.834,0-12.06-2.444-12.06-3.445v-4.135
						c2.991,1.59,7.536,2.412,12.06,2.412c4.524,0,9.069-0.822,12.061-2.412v4.135C67.509,75.449,63.282,77.894,55.448,77.894z
						 M55.448,69.28c-7.834,0-12.06-2.445-12.06-3.446v-4.135c2.991,1.591,7.536,2.412,12.06,2.412
						c4.524,0,9.069-0.821,12.061-2.412v4.135C67.509,66.835,63.282,69.28,55.448,69.28z M55.448,60.665
						c-7.834,0-12.06-2.444-12.06-3.445v-4.135c2.991,1.59,7.536,2.412,12.06,2.412c4.524,0,9.069-0.822,12.061-2.412v4.135
						C67.509,58.221,63.282,60.665,55.448,60.665z M55.448,52.052c-7.834,0-12.06-2.445-12.06-3.446s4.226-3.446,12.06-3.446
						s12.061,2.445,12.061,3.446S63.282,52.052,55.448,52.052z"/>
				</g>
			</g>
		</g>
	</g>
</g>
</svg>
