<?xml version="1.0" encoding="utf-8"?>
<!-- Generator: Adobe Illustrator 16.0.3, SVG Export Plug-In . SVG Version: 6.00 Build 0)  -->
<!DOCTYPE svg PUBLIC "-//W3C//DTD SVG 1.1//EN" "http://www.w3.org/Graphics/SVG/1.1/DTD/svg11.dtd">
<svg version="1.1" id="Capa_1" xmlns="http://www.w3.org/2000/svg" xmlns:xlink="http://www.w3.org/1999/xlink" x="0px" y="0px"
	 width="176.75px" height="146.5px" viewBox="-36 0 176.75 146.5" enable-background="new -36 0 176.75 146.5" xml:space="preserve"
	>
<title>icon1</title>
<desc>Created with Sketch.</desc>
<g id="Landing-podcast">
	<g id="Landing-podcast_Mobile" transform="translate(-108.000000, -4125.000000)">
		<g id="topicos" transform="translate(0.000000, 4004.000000)">
			<g id="_x31_" transform="translate(0.000000, 108.000000)">
				<g id="icon1" transform="translate(108.000000, 13.000000)">
					<rect id="Rectangle" x="43.333" y="17.333" fill="#00F3BB" width="17.333" height="3.466"/>
					<rect id="Rectangle_1_" x="43.333" y="24.267" fill="#00F3BB" width="17.333" height="3.467"/>
					<path id="Shape" fill="#0000EC" d="M95.334,90.133V76.267c0-0.77-0.508-1.447-1.248-1.664L53.733,62.834V41.6h12.134
						c0.958,0,1.732-0.777,1.732-1.733V12.133c0-0.459-0.182-0.901-0.508-1.226l-10.4-10.4C56.368,0.182,55.928,0,55.467,0H38.133
						C37.175,0,36.4,0.776,36.4,1.733v38.133c0,0.957,0.775,1.733,1.733,1.733h12.133v21.234L9.915,74.603
						c-0.74,0.217-1.248,0.895-1.248,1.664v13.866c0,0.77,0.508,1.447,1.248,1.664l41.6,12.134C51.674,103.978,51.835,104,52,104
						s0.326-0.022,0.485-0.069l41.601-12.134C94.826,91.58,95.334,90.902,95.334,90.133z M57.2,5.917l4.482,4.482H57.2V5.917z
						 M39.867,3.467h13.867v8.667c0,0.957,0.774,1.733,1.733,1.733h8.666v24.267H39.867V3.467z M50.267,66.443v9.105l-3.975-3.975
						l-2.451,2.451l6.933,6.934c0.338,0.338,0.782,0.508,1.226,0.508s0.888-0.17,1.226-0.508l6.933-6.934l-2.45-2.451l-3.975,3.975
						v-9.105l33.677,9.823L52,86.594L16.59,76.267L50.267,66.443z M12.133,78.577L50.267,89.7v10.256L12.133,88.834V78.577z
						 M53.733,99.956V89.7l38.134-11.123v10.257L53.733,99.956z"/>
					<rect id="Rectangle_2_" x="43.333" y="10.4" fill="#00F3BB" width="6.933" height="3.467"/>
					<path id="Shape_1_" fill="#0000EC" d="M1.733,41.6h12.133c0,4.779,3.888,8.667,8.667,8.667h5.2c2.867,0,5.2,2.333,5.2,5.2
						v2.749l-3.974-3.975l-2.451,2.451l6.934,6.933c0.338,0.338,0.782,0.508,1.225,0.508c0.444,0,0.888-0.17,1.226-0.508
						l6.934-6.933l-2.451-2.451L36.4,58.216v-2.749c0-4.779-3.888-8.667-8.667-8.667h-5.2c-2.867,0-5.2-2.333-5.2-5.2h12.133
						c0.958,0,1.733-0.777,1.733-1.733V12.133c0-0.459-0.182-0.901-0.508-1.226l-10.4-10.4C19.968,0.182,19.528,0,19.067,0H1.733
						C0.775,0,0,0.776,0,1.733v38.133C0,40.823,0.775,41.6,1.733,41.6z M20.8,5.917l4.482,4.482H20.8V5.917z M3.467,3.467h13.867
						v8.667c0,0.957,0.774,1.733,1.733,1.733h8.667v24.267H3.467V3.467z"/>
					<rect id="Rectangle_3_" x="6.933" y="17.333" fill="#00F3BB" width="17.333" height="3.466"/>
					<rect id="Rectangle_4_" x="6.933" y="24.267" fill="#00F3BB" width="17.333" height="3.467"/>
					<rect id="Rectangle_5_" x="6.933" y="31.2" fill="#00F3BB" width="17.333" height="3.466"/>
					<rect id="Rectangle_6_" x="6.933" y="10.4" fill="#00F3BB" width="6.934" height="3.467"/>
					<path id="Shape_2_" fill="#0000EC" d="M104,39.867V12.133c0-0.459-0.182-0.901-0.508-1.226l-10.4-10.4
						C92.768,0.182,92.328,0,91.867,0H74.533C73.574,0,72.8,0.776,72.8,1.733v38.133c0,0.957,0.774,1.733,1.733,1.733h12.133
						c0,2.867-2.332,5.2-5.199,5.2h-5.2c-4.778,0-8.667,3.888-8.667,8.667v2.749l-3.975-3.975l-2.451,2.451l6.934,6.933
						c0.338,0.338,0.782,0.508,1.227,0.508c0.443,0,0.887-0.17,1.225-0.508l6.934-6.933l-2.451-2.451l-3.975,3.975v-2.749
						c0-2.867,2.334-5.2,5.2-5.2h5.2c4.779,0,8.666-3.888,8.666-8.667h12.134C103.225,41.6,104,40.823,104,39.867z M93.6,5.917
						l4.482,4.482H93.6V5.917z M76.267,38.133V3.467h13.866v8.667c0,0.957,0.775,1.733,1.734,1.733h8.666v24.267H76.267z"/>
					<rect id="Rectangle_7_" x="79.733" y="17.333" fill="#00F3BB" width="17.333" height="3.466"/>
					<rect id="Rectangle_8_" x="79.733" y="24.267" fill="#00F3BB" width="17.333" height="3.467"/>
					<rect id="Rectangle_9_" x="79.733" y="31.2" fill="#00F3BB" width="17.333" height="3.466"/>
					<rect id="Rectangle_10_" x="79.733" y="10.4" fill="#00F3BB" width="6.933" height="3.467"/>
					<rect id="Rectangle_11_" x="43.333" y="31.2" fill="#00F3BB" width="3.466" height="3.466"/>
					<rect id="Rectangle_12_" x="50.267" y="31.2" fill="#00F3BB" width="3.467" height="3.466"/>
					<rect id="Rectangle_13_" x="57.2" y="31.2" fill="#00F3BB" width="3.466" height="3.466"/>
				</g>
			</g>
		</g>
	</g>
</g>
<g>
	<path fill="#060A24" d="M-24.192,122.108v13.944h-3.168v-13.944h-4.752v-2.808h12.672v2.808H-24.192z"/>
	<path fill="#060A24" d="M-18.12,136.053v-12.528h3.072v2.593h0.12c0.08-0.337,0.204-0.66,0.372-0.973
		c0.168-0.312,0.388-0.588,0.66-0.828c0.272-0.239,0.596-0.432,0.972-0.575c0.375-0.145,0.812-0.217,1.308-0.217h0.672v2.904h-0.96
		c-1.041,0-1.824,0.152-2.352,0.456c-0.528,0.304-0.792,0.8-0.792,1.488v7.68H-18.12z"/>
	<path fill="#060A24" d="M0.264,136.053c-0.672,0-1.204-0.195-1.596-0.588c-0.392-0.392-0.636-0.916-0.732-1.572h-0.144
		c-0.208,0.816-0.632,1.428-1.272,1.836c-0.64,0.408-1.432,0.612-2.376,0.612c-1.28,0-2.264-0.335-2.952-1.005
		s-1.032-1.563-1.032-2.68c0-1.291,0.464-2.253,1.392-2.883s2.248-0.944,3.96-0.944h2.136v-0.912c0-0.704-0.184-1.248-0.552-1.632
		c-0.369-0.385-0.96-0.576-1.776-0.576c-0.72,0-1.3,0.155-1.74,0.468c-0.44,0.312-0.813,0.684-1.116,1.116l-1.824-1.642
		c0.464-0.725,1.08-1.308,1.848-1.751c0.768-0.442,1.784-0.664,3.048-0.664c1.696,0,2.984,0.384,3.864,1.149
		c0.88,0.767,1.32,1.868,1.32,3.305v5.891h1.248v2.472H0.264z M-4.824,134.108c0.688,0,1.272-0.15,1.752-0.452
		c0.48-0.302,0.72-0.747,0.72-1.335v-1.645H-4.32c-1.6,0-2.4,0.509-2.4,1.525v0.405c0,0.509,0.164,0.886,0.492,1.132
		C-5.9,133.985-5.432,134.108-4.824,134.108z"/>
	<path fill="#060A24" d="M4.463,118.293h3.072v7.296h0.096c0.224-0.72,0.648-1.292,1.272-1.716s1.352-0.637,2.184-0.637
		c1.6,0,2.82,0.564,3.66,1.692s1.26,2.74,1.26,4.836c0,2.112-0.42,3.736-1.26,4.872c-0.84,1.137-2.061,1.704-3.66,1.704
		c-0.832,0-1.556-0.216-2.172-0.648c-0.616-0.432-1.044-1.008-1.284-1.728H7.536v2.088H4.463V118.293z M10.104,133.797
		c0.8,0,1.448-0.264,1.944-0.792s0.744-1.24,0.744-2.136v-2.16c0-0.896-0.248-1.612-0.744-2.148s-1.144-0.804-1.944-0.804
		c-0.736,0-1.348,0.184-1.836,0.552c-0.488,0.368-0.732,0.856-0.732,1.464v3.984c0,0.656,0.244,1.16,0.732,1.512
		C8.755,133.621,9.367,133.797,10.104,133.797z"/>
	<path fill="#060A24" d="M28.08,136.053c-0.672,0-1.204-0.195-1.596-0.588c-0.392-0.392-0.636-0.916-0.732-1.572h-0.144
		c-0.208,0.816-0.632,1.428-1.272,1.836c-0.64,0.408-1.432,0.612-2.376,0.612c-1.28,0-2.264-0.335-2.952-1.005
		s-1.032-1.563-1.032-2.68c0-1.291,0.464-2.253,1.392-2.883s2.248-0.944,3.96-0.944h2.136v-0.912c0-0.704-0.184-1.248-0.552-1.632
		c-0.369-0.385-0.96-0.576-1.776-0.576c-0.72,0-1.3,0.155-1.74,0.468c-0.44,0.312-0.813,0.684-1.116,1.116l-1.824-1.642
		c0.464-0.725,1.08-1.308,1.848-1.751c0.768-0.442,1.784-0.664,3.048-0.664c1.696,0,2.984,0.384,3.864,1.149
		c0.88,0.767,1.32,1.868,1.32,3.305v5.891h1.248v2.472H28.08z M22.991,134.108c0.688,0,1.272-0.15,1.752-0.452
		c0.48-0.302,0.72-0.747,0.72-1.335v-1.645h-1.968c-1.6,0-2.4,0.509-2.4,1.525v0.405c0,0.509,0.164,0.886,0.492,1.132
		C21.915,133.985,22.383,134.108,22.991,134.108z"/>
	<path fill="#060A24" d="M32.279,123.524h3.072v14.04c0,1.057-0.264,1.868-0.792,2.437c-0.528,0.567-1.368,0.852-2.52,0.852h-1.68
		v-2.472h1.92V123.524z M33.815,121.701c-0.64,0-1.1-0.145-1.38-0.433c-0.28-0.288-0.42-0.655-0.42-1.104v-0.48
		c0-0.447,0.14-0.815,0.42-1.104c0.28-0.288,0.74-0.433,1.38-0.433c0.624,0,1.08,0.145,1.368,0.433
		c0.288,0.288,0.432,0.656,0.432,1.104v0.48c0,0.448-0.144,0.815-0.432,1.104C34.896,121.557,34.439,121.701,33.815,121.701z"/>
	<path fill="#060A24" d="M43.871,136.341c-0.896,0-1.7-0.152-2.412-0.456s-1.32-0.744-1.824-1.32
		c-0.504-0.576-0.892-1.268-1.164-2.076c-0.272-0.808-0.408-1.716-0.408-2.724s0.136-1.912,0.408-2.712
		c0.271-0.8,0.66-1.483,1.164-2.052c0.504-0.568,1.112-1.004,1.824-1.309c0.712-0.304,1.516-0.456,2.412-0.456
		c0.896,0,1.704,0.152,2.424,0.456c0.72,0.305,1.332,0.74,1.836,1.309s0.892,1.252,1.164,2.052c0.271,0.8,0.408,1.704,0.408,2.712
		s-0.137,1.916-0.408,2.724c-0.272,0.809-0.66,1.5-1.164,2.076s-1.116,1.017-1.836,1.32
		C45.575,136.188,44.767,136.341,43.871,136.341z M43.871,133.869c0.816,0,1.456-0.248,1.92-0.744
		c0.464-0.496,0.696-1.225,0.696-2.185v-2.328c0-0.943-0.232-1.663-0.696-2.159c-0.464-0.496-1.104-0.744-1.92-0.744
		c-0.8,0-1.432,0.248-1.896,0.744c-0.464,0.496-0.696,1.216-0.696,2.159v2.328c0,0.96,0.232,1.688,0.696,2.185
		C42.439,133.621,43.071,133.869,43.871,133.869z"/>
	<path fill="#060A24" d="M58.079,136.053v-12.528h3.071v2.593h0.12c0.08-0.337,0.204-0.66,0.372-0.973
		c0.168-0.312,0.388-0.588,0.66-0.828c0.271-0.239,0.596-0.432,0.972-0.575c0.376-0.145,0.813-0.217,1.309-0.217h0.672v2.904h-0.96
		c-1.04,0-1.824,0.152-2.353,0.456c-0.527,0.304-0.792,0.8-0.792,1.488v7.68H58.079z"/>
	<path fill="#060A24" d="M72.454,136.341c-0.928,0-1.756-0.156-2.483-0.468c-0.729-0.313-1.345-0.752-1.849-1.32
		c-0.504-0.567-0.892-1.256-1.164-2.064c-0.272-0.808-0.408-1.716-0.408-2.724c0-0.992,0.133-1.888,0.396-2.688
		s0.644-1.484,1.14-2.053c0.496-0.567,1.104-1.008,1.824-1.319c0.72-0.313,1.536-0.469,2.448-0.469c0.976,0,1.824,0.168,2.544,0.505
		c0.72,0.336,1.312,0.792,1.776,1.367c0.464,0.576,0.812,1.244,1.044,2.004c0.231,0.761,0.348,1.572,0.348,2.437v1.008h-8.328v0.31
		c0,0.906,0.256,1.633,0.769,2.181c0.512,0.548,1.271,0.822,2.279,0.822c0.769,0,1.396-0.159,1.884-0.477s0.925-0.723,1.309-1.216
		l1.656,1.854c-0.513,0.723-1.213,1.288-2.101,1.697C74.65,136.136,73.622,136.341,72.454,136.341z M72.406,125.541
		c-0.816,0-1.464,0.271-1.944,0.815c-0.479,0.544-0.72,1.248-0.72,2.112v0.192h5.136v-0.217c0-0.863-0.212-1.563-0.636-2.1
		S73.206,125.541,72.406,125.541z"/>
	<path fill="#060A24" d="M80.783,136.053v-12.528h3.071v2.088h0.12c0.24-0.655,0.624-1.215,1.152-1.68
		c0.528-0.464,1.264-0.696,2.208-0.696c0.864,0,1.607,0.209,2.231,0.624c0.624,0.417,1.088,1.049,1.393,1.896h0.048
		c0.224-0.704,0.668-1.3,1.332-1.788s1.5-0.732,2.508-0.732c1.232,0,2.18,0.425,2.844,1.272c0.664,0.849,0.996,2.056,0.996,3.624
		v7.92h-3.071v-7.608c0-1.791-0.673-2.688-2.017-2.688c-0.304,0-0.596,0.044-0.876,0.132s-0.527,0.216-0.744,0.384
		c-0.216,0.168-0.388,0.376-0.516,0.624s-0.192,0.54-0.192,0.876v8.28h-3.071v-7.608c0-1.791-0.673-2.688-2.017-2.688
		c-0.288,0-0.572,0.044-0.852,0.132c-0.28,0.088-0.528,0.216-0.744,0.384s-0.393,0.376-0.528,0.624s-0.204,0.54-0.204,0.876v8.28
		H80.783z"/>
	<path fill="#060A24" d="M107.063,136.341c-0.896,0-1.7-0.152-2.412-0.456s-1.32-0.744-1.824-1.32s-0.892-1.268-1.164-2.076
		c-0.272-0.808-0.408-1.716-0.408-2.724s0.136-1.912,0.408-2.712s0.66-1.483,1.164-2.052s1.112-1.004,1.824-1.309
		c0.712-0.304,1.516-0.456,2.412-0.456c0.896,0,1.704,0.152,2.424,0.456c0.72,0.305,1.332,0.74,1.836,1.309s0.892,1.252,1.164,2.052
		c0.271,0.8,0.408,1.704,0.408,2.712s-0.137,1.916-0.408,2.724c-0.272,0.809-0.66,1.5-1.164,2.076s-1.116,1.017-1.836,1.32
		S107.958,136.341,107.063,136.341z M107.063,133.869c0.815,0,1.456-0.248,1.92-0.744s0.696-1.225,0.696-2.185v-2.328
		c0-0.943-0.232-1.663-0.696-2.159s-1.104-0.744-1.92-0.744c-0.801,0-1.433,0.248-1.896,0.744s-0.695,1.216-0.695,2.159v2.328
		c0,0.96,0.231,1.688,0.695,2.185S106.262,133.869,107.063,133.869z"/>
	<path fill="#060A24" d="M119.423,136.053c-1.057,0-1.86-0.275-2.412-0.826c-0.553-0.55-0.828-1.337-0.828-2.358v-6.871h-1.849
		v-2.473h0.96c0.464,0,0.78-0.107,0.948-0.323c0.168-0.217,0.252-0.54,0.252-0.973v-2.136h2.76v3.432h2.568v2.473h-2.568v7.584
		h2.377v2.472H119.423z"/>
	<path fill="#060A24" d="M129.357,136.341c-0.896,0-1.7-0.152-2.412-0.456s-1.32-0.744-1.824-1.32s-0.892-1.268-1.164-2.076
		c-0.272-0.808-0.408-1.716-0.408-2.724s0.136-1.912,0.408-2.712s0.66-1.483,1.164-2.052s1.112-1.004,1.824-1.309
		c0.712-0.304,1.516-0.456,2.412-0.456c0.896,0,1.704,0.152,2.424,0.456c0.72,0.305,1.332,0.74,1.836,1.309s0.892,1.252,1.164,2.052
		c0.271,0.8,0.408,1.704,0.408,2.712s-0.137,1.916-0.408,2.724c-0.272,0.809-0.66,1.5-1.164,2.076s-1.116,1.017-1.836,1.32
		S130.253,136.341,129.357,136.341z M129.357,133.869c0.815,0,1.456-0.248,1.92-0.744s0.696-1.225,0.696-2.185v-2.328
		c0-0.943-0.232-1.663-0.696-2.159s-1.104-0.744-1.92-0.744c-0.801,0-1.433,0.248-1.896,0.744s-0.695,1.216-0.695,2.159v2.328
		c0,0.96,0.231,1.688,0.695,2.185S128.557,133.869,129.357,133.869z"/>
</g>
</svg>
