<?xml version="1.0" encoding="utf-8"?>
<!-- Generator: Adobe Illustrator 16.0.3, SVG Export Plug-In . SVG Version: 6.00 Build 0)  -->
<!DOCTYPE svg PUBLIC "-//W3C//DTD SVG 1.1//EN" "http://www.w3.org/Graphics/SVG/1.1/DTD/svg11.dtd">
<svg version="1.1" id="Capa_1" xmlns="http://www.w3.org/2000/svg" xmlns:xlink="http://www.w3.org/1999/xlink" x="0px" y="0px"
	 width="176.75px" height="185.167px" viewBox="-36 0 176.75 185.167" enable-background="new -36 0 176.75 185.167"
	 xml:space="preserve">
<title>icon1</title>
<desc>Created with Sketch.</desc>
<g id="Landing-podcast_1_">
	<g id="Landing-podcast_Mobile_1_" transform="translate(-108.000000, -4323.000000)">
		<g id="topicos_1_" transform="translate(0.000000, 4004.000000)">
			<g id="_x32_" transform="translate(0.000000, 306.000000)">
				<g id="icon2" transform="translate(108.000000, 13.000000)">
					<path id="Shape_3_" fill="#00F3BB" d="M32.739,51.272H16.916c-0.457,0-0.896,0.181-1.218,0.505l-6.387,6.387H7.984
						c-0.713-2-2.608-3.445-4.852-3.445c-2.85,0-5.168,2.318-5.168,5.168s2.319,5.168,5.168,5.168c2.243,0,4.139-1.445,4.852-3.445
						h2.04c0.457,0,0.896-0.181,1.218-0.505l6.386-6.386h15.11c0.713,2,2.608,3.445,4.852,3.445c1.309,0,2.491-0.505,3.402-1.31
						l7.021,3.905c-0.047,0.277-0.087,0.559-0.087,0.85c0,2.85,2.319,5.169,5.168,5.169c2.85,0,5.17-2.319,5.17-5.169
						c0-0.291-0.041-0.572-0.086-0.85l7.02-3.905c0.912,0.805,2.094,1.31,3.402,1.31c2.85,0,5.17-2.319,5.17-5.169
						c0-2.243-1.447-4.138-3.447-4.852v-7.527c2-0.713,3.447-2.608,3.447-4.852c0-2.85-2.32-5.168-5.17-5.168
						c-1.309,0-2.49,0.505-3.402,1.31L58.18,28c0.045-0.276,0.086-0.557,0.086-0.848c0-2.85-2.32-5.169-5.17-5.169
						c-2.849,0-5.168,2.319-5.168,5.169c0,0.291,0.04,0.572,0.087,0.849l-7.021,3.906c-0.911-0.805-2.093-1.309-3.402-1.309
						c-2.243,0-4.138,1.445-4.852,3.446h-15.11l-6.386-6.387c-0.322-0.324-0.762-0.505-1.218-0.505h-2.04
						c-0.713-2-2.608-3.446-4.852-3.446c-2.85,0-5.168,2.319-5.168,5.168s2.319,5.169,5.168,5.169c2.243,0,4.139-1.446,4.852-3.446
						h1.327l6.387,6.386c0.322,0.324,0.762,0.505,1.218,0.505h15.823c0.52,1.46,1.669,2.608,3.128,3.129v2.04H7.984
						c-0.713-2-2.608-3.445-4.852-3.445c-2.85,0-5.168,2.318-5.168,5.168s2.319,5.168,5.168,5.168c2.243,0,4.139-1.445,4.852-3.445
						h27.883v2.04C34.408,48.664,33.259,49.813,32.739,51.272z M3.133,61.609c-0.949,0-1.723-0.773-1.723-1.723
						s0.773-1.723,1.723-1.723s1.723,0.773,1.723,1.723S4.082,61.609,3.133,61.609z M3.133,30.598c-0.949,0-1.723-0.774-1.723-1.723
						s0.773-1.723,1.723-1.723s1.723,0.773,1.723,1.723S4.082,30.598,3.133,30.598z M3.133,46.104c-0.949,0-1.723-0.773-1.723-1.723
						s0.773-1.723,1.723-1.723s1.723,0.773,1.723,1.723S4.082,46.104,3.133,46.104z M37.59,54.719c-0.949,0-1.723-0.774-1.723-1.724
						s0.774-1.723,1.723-1.723s1.723,0.773,1.723,1.723S38.54,54.719,37.59,54.719z M40.993,39.626l7.021,3.905
						c-0.047,0.277-0.087,0.559-0.087,0.85s0.04,0.572,0.087,0.85l-7.021,3.905c-0.489-0.431-1.054-0.769-1.68-0.992v-7.527
						C39.938,40.395,40.505,40.059,40.993,39.626z M65.199,49.136l-7.02-3.905c0.045-0.277,0.086-0.559,0.086-0.85
						s-0.041-0.572-0.086-0.85l7.02-3.905c0.49,0.431,1.055,0.769,1.68,0.992v7.527C66.254,48.367,65.688,48.703,65.199,49.136z
						 M42.673,52.146l7.021-3.906c0.488,0.431,1.054,0.769,1.679,0.992v7.527c-0.625,0.224-1.191,0.561-1.679,0.992l-7.021-3.906
						c0.046-0.278,0.086-0.56,0.086-0.851S42.719,52.424,42.673,52.146z M53.096,42.658c0.949,0,1.723,0.773,1.723,1.723
						s-0.773,1.723-1.723,1.723c-0.95,0-1.723-0.773-1.723-1.723S52.146,42.658,53.096,42.658z M54.818,49.232
						c0.627-0.224,1.193-0.561,1.68-0.992l7.021,3.906c-0.047,0.277-0.086,0.558-0.086,0.849s0.039,0.572,0.086,0.85l-7.021,3.905
						c-0.488-0.43-1.053-0.768-1.68-0.992V49.232L54.818,49.232z M63.52,36.616l-7.021,3.905c-0.488-0.431-1.053-0.768-1.68-0.992
						v-7.527c0.627-0.224,1.193-0.56,1.68-0.992l7.021,3.906c-0.047,0.278-0.086,0.56-0.086,0.851S63.473,36.338,63.52,36.616z
						 M51.373,39.529c-0.625,0.225-1.191,0.561-1.679,0.992l-7.021-3.905c0.046-0.278,0.086-0.559,0.086-0.85
						s-0.04-0.572-0.086-0.85l7.021-3.905c0.488,0.431,1.054,0.768,1.679,0.992V39.529z M53.096,63.332
						c-0.95,0-1.723-0.773-1.723-1.723s0.773-1.723,1.723-1.723c0.949,0,1.723,0.773,1.723,1.723S54.045,63.332,53.096,63.332z
						 M68.602,54.719c-0.949,0-1.723-0.774-1.723-1.724s0.773-1.723,1.723-1.723s1.723,0.773,1.723,1.723
						S69.551,54.719,68.602,54.719z M68.602,34.044c0.949,0,1.723,0.773,1.723,1.723s-0.773,1.723-1.723,1.723
						s-1.723-0.773-1.723-1.723S67.652,34.044,68.602,34.044z M53.096,25.429c0.949,0,1.723,0.774,1.723,1.723
						s-0.773,1.723-1.723,1.723c-0.95,0-1.723-0.773-1.723-1.723S52.146,25.429,53.096,25.429z M37.59,34.044
						c0.949,0,1.723,0.773,1.723,1.723s-0.773,1.723-1.723,1.723s-1.723-0.773-1.723-1.723S36.641,34.044,37.59,34.044z"/>
					<path id="Path" fill="#0000EC" d="M34.145,115.019h27.566c0.951,0,1.723-0.772,1.723-1.724v-12.06H85.83
						c0.951,0,1.723-0.771,1.723-1.723V78.838h12.061c0.549,0,1.063-0.26,1.389-0.703c0.326-0.442,0.42-1.011,0.258-1.535
						l-8.592-27.486c-0.344-10.454-4.758-20.102-12.463-27.212C72.412,14.71,62.256,11.099,51.63,11.715
						c-12.229,0.715-23.559,7.426-30.308,17.952l2.901,1.859C30.38,21.925,40.7,15.806,51.833,15.154
						c9.684-0.57,18.938,2.729,26.034,9.279c7.121,6.569,11.158,15.52,11.367,25.2c0.008,0.298,0.096,0.579,0.244,0.821
						l7.793,24.938H85.83c-0.951,0-1.723,0.771-1.723,1.723v6.892h-5.168c-2.85,0-5.168-2.319-5.168-5.169h-3.447
						c0,4.75,3.865,8.615,8.615,8.615h5.168v10.336H61.711c-0.951,0-1.723,0.772-1.723,1.724v12.06H35.867v-1.666
						c0-13.939-4.19-28.192-12.119-41.219c-1.754-2.881-3.079-5.99-3.94-9.242l-3.332,0.883c0.946,3.571,2.402,6.986,4.328,10.15
						c7.6,12.488,11.618,26.121,11.618,39.428v3.389C32.422,114.246,33.193,115.019,34.145,115.019z"/>
				</g>
			</g>
		</g>
	</g>
</g>
<g>
	<path d="M-27.386,148.988h-3.168v-16.752h7.56c0.768,0,1.456,0.12,2.064,0.359c0.608,0.24,1.124,0.588,1.548,1.045
		c0.424,0.455,0.752,1.004,0.984,1.644s0.348,1.353,0.348,2.136c0,1.152-0.26,2.145-0.78,2.977s-1.3,1.424-2.34,1.775l3.432,6.816
		h-3.528l-3.12-6.456h-3V148.988z M-23.307,139.868c0.608,0,1.088-0.163,1.44-0.491s0.528-0.797,0.528-1.404v-1.104
		c0-0.608-0.176-1.071-0.528-1.392s-0.832-0.48-1.44-0.48h-4.08v4.872H-23.307z"/>
	<path d="M-10.107,149.276c-0.928,0-1.756-0.156-2.484-0.468c-0.728-0.313-1.344-0.752-1.848-1.32
		c-0.504-0.568-0.892-1.256-1.164-2.064c-0.272-0.807-0.408-1.715-0.408-2.724c0-0.991,0.132-1.888,0.396-2.688
		c0.264-0.799,0.644-1.483,1.14-2.051c0.496-0.568,1.104-1.009,1.824-1.32c0.72-0.313,1.536-0.469,2.448-0.469
		c0.976,0,1.824,0.168,2.544,0.504c0.72,0.336,1.312,0.793,1.776,1.369c0.464,0.575,0.812,1.244,1.044,2.004
		s0.348,1.571,0.348,2.436v1.008h-8.328v0.311c0,0.904,0.256,1.632,0.768,2.18c0.512,0.549,1.272,0.822,2.28,0.822
		c0.768,0,1.396-0.159,1.884-0.477c0.488-0.318,0.924-0.723,1.308-1.215l1.656,1.853c-0.512,0.722-1.212,1.288-2.1,1.696
		C-7.911,149.071-8.939,149.276-10.107,149.276z M-10.155,138.477c-0.816,0-1.464,0.271-1.944,0.816
		c-0.48,0.543-0.72,1.247-0.72,2.111v0.191h5.136v-0.215c0-0.865-0.212-1.564-0.636-2.101S-9.355,138.477-10.155,138.477z"/>
	<path d="M-1.779,136.461h3.072v2.063h0.096c0.224-0.72,0.648-1.292,1.272-1.716s1.352-0.637,2.184-0.637
		c1.6,0,2.82,0.564,3.66,1.692s1.26,2.74,1.26,4.836c0,2.112-0.42,3.736-1.26,4.872c-0.84,1.137-2.061,1.704-3.66,1.704
		c-0.832,0-1.556-0.216-2.172-0.647c-0.616-0.433-1.044-1.009-1.284-1.729H1.293v6.888h-3.072V136.461z M3.861,146.732
		c0.8,0,1.448-0.264,1.944-0.792s0.744-1.239,0.744-2.136v-2.16c0-0.896-0.248-1.611-0.744-2.148
		c-0.496-0.535-1.144-0.804-1.944-0.804c-0.736,0-1.348,0.185-1.836,0.552c-0.488,0.368-0.732,0.856-0.732,1.465v3.983
		c0,0.656,0.244,1.16,0.732,1.512C2.513,146.557,3.125,146.732,3.861,146.732z"/>
	<path d="M17.685,149.276c-0.928,0-1.756-0.156-2.484-0.468c-0.728-0.313-1.344-0.752-1.848-1.32
		c-0.504-0.568-0.892-1.256-1.164-2.064c-0.272-0.807-0.408-1.715-0.408-2.724c0-0.991,0.132-1.888,0.396-2.688
		c0.264-0.799,0.644-1.483,1.14-2.051c0.496-0.568,1.104-1.009,1.824-1.32c0.72-0.313,1.536-0.469,2.448-0.469
		c0.976,0,1.824,0.168,2.544,0.504c0.72,0.336,1.312,0.793,1.776,1.369c0.464,0.575,0.812,1.244,1.044,2.004
		s0.348,1.571,0.348,2.436v1.008h-8.328v0.311c0,0.904,0.256,1.632,0.768,2.18c0.512,0.549,1.272,0.822,2.28,0.822
		c0.768,0,1.396-0.159,1.884-0.477c0.488-0.318,0.924-0.723,1.308-1.215l1.656,1.853c-0.512,0.722-1.212,1.288-2.1,1.696
		C19.881,149.071,18.853,149.276,17.685,149.276z M17.637,138.477c-0.816,0-1.464,0.271-1.944,0.816
		c-0.48,0.543-0.72,1.247-0.72,2.111v0.191h5.136v-0.215c0-0.865-0.212-1.564-0.636-2.101S18.437,138.477,17.637,138.477z"/>
	<path d="M26.013,148.988v-12.527h3.072v2.088h0.12c0.256-0.672,0.66-1.236,1.212-1.692c0.552-0.456,1.316-0.685,2.292-0.685
		c1.296,0,2.288,0.424,2.976,1.272c0.688,0.849,1.032,2.056,1.032,3.624v7.92h-3.072v-7.607c0-0.896-0.16-1.568-0.48-2.017
		c-0.32-0.448-0.849-0.672-1.584-0.672c-0.32,0-0.628,0.044-0.924,0.132c-0.296,0.088-0.56,0.216-0.792,0.385
		c-0.232,0.168-0.42,0.375-0.564,0.623s-0.216,0.54-0.216,0.877v8.279H26.013z"/>
	<path d="M44.229,149.276c-1.2,0-2.208-0.204-3.024-0.612s-1.536-0.972-2.16-1.691l1.872-1.824c0.464,0.527,0.972,0.944,1.524,1.248
		c0.552,0.304,1.188,0.455,1.908,0.455c0.736,0,1.268-0.127,1.596-0.383c0.328-0.256,0.492-0.608,0.492-1.057
		c0-0.367-0.116-0.66-0.348-0.876c-0.232-0.216-0.628-0.364-1.188-0.444l-1.248-0.168c-1.36-0.176-2.396-0.563-3.108-1.164
		c-0.712-0.6-1.068-1.476-1.068-2.627c0-0.608,0.112-1.156,0.336-1.645s0.544-0.904,0.96-1.248s0.916-0.607,1.5-0.792
		c0.584-0.184,1.236-0.276,1.956-0.276c0.608,0,1.148,0.045,1.62,0.133c0.472,0.088,0.9,0.216,1.284,0.384
		c0.384,0.168,0.735,0.376,1.056,0.624c0.32,0.248,0.632,0.523,0.936,0.828l-1.8,1.8c-0.368-0.384-0.808-0.704-1.32-0.96
		s-1.072-0.385-1.68-0.385c-0.672,0-1.156,0.121-1.452,0.36c-0.296,0.24-0.444,0.552-0.444,0.937c0,0.416,0.124,0.732,0.372,0.947
		c0.248,0.217,0.668,0.373,1.26,0.469l1.272,0.168c2.704,0.384,4.056,1.616,4.056,3.695c0,0.609-0.124,1.164-0.372,1.668
		s-0.596,0.937-1.044,1.297c-0.448,0.359-0.988,0.64-1.62,0.84C45.721,149.176,45.013,149.276,44.229,149.276z"/>
	<path d="M61.316,148.988c-0.672,0-1.203-0.195-1.596-0.588s-0.637-0.916-0.732-1.572h-0.144c-0.208,0.816-0.632,1.428-1.272,1.836
		c-0.64,0.408-1.432,0.612-2.375,0.612c-1.281,0-2.265-0.335-2.953-1.005s-1.032-1.563-1.032-2.68c0-1.291,0.464-2.252,1.392-2.883
		c0.928-0.63,2.248-0.945,3.96-0.945h2.137v-0.912c0-0.703-0.185-1.247-0.553-1.631c-0.368-0.385-0.96-0.576-1.775-0.576
		c-0.721,0-1.301,0.156-1.74,0.468c-0.44,0.312-0.813,0.685-1.116,1.116l-1.824-1.643c0.464-0.724,1.081-1.307,1.848-1.75
		c0.768-0.441,1.783-0.664,3.048-0.664c1.696,0,2.983,0.384,3.864,1.15c0.879,0.766,1.32,1.867,1.32,3.304v5.89h1.247v2.473H61.316z
		 M56.229,147.045c0.688,0,1.271-0.151,1.752-0.453c0.48-0.303,0.721-0.747,0.721-1.335v-1.645h-1.969c-1.6,0-2.4,0.509-2.4,1.525
		v0.405c0,0.508,0.164,0.886,0.492,1.132C55.152,146.922,55.621,147.045,56.229,147.045z"/>
	<path d="M65.517,148.988v-12.527h3.072v2.088h0.12c0.256-0.672,0.66-1.236,1.212-1.692s1.315-0.685,2.292-0.685
		c1.296,0,2.287,0.424,2.977,1.272c0.688,0.849,1.031,2.056,1.031,3.624v7.92h-3.072v-7.607c0-0.896-0.16-1.568-0.479-2.017
		c-0.32-0.448-0.849-0.672-1.584-0.672c-0.32,0-0.628,0.044-0.925,0.132c-0.296,0.088-0.56,0.216-0.791,0.385
		c-0.232,0.168-0.42,0.375-0.564,0.623s-0.216,0.54-0.216,0.877v8.279H65.517z"/>
	<path d="M87.404,146.9h-0.119c-0.225,0.72-0.648,1.296-1.272,1.729c-0.624,0.432-1.353,0.647-2.185,0.647
		c-1.584,0-2.795-0.567-3.636-1.704c-0.84-1.136-1.26-2.76-1.26-4.872c0-2.096,0.42-3.708,1.26-4.836
		c0.841-1.128,2.052-1.692,3.636-1.692c0.832,0,1.561,0.213,2.185,0.637s1.048,0.996,1.272,1.716h0.119v-7.296h3.072v17.76h-3.072
		V146.9z M84.813,146.732c0.736,0,1.352-0.176,1.848-0.528c0.496-0.352,0.744-0.855,0.744-1.512v-3.983
		c0-0.608-0.248-1.097-0.744-1.465c-0.496-0.367-1.111-0.552-1.848-0.552c-0.801,0-1.443,0.269-1.932,0.804
		c-0.488,0.537-0.732,1.252-0.732,2.148v2.16c0,0.896,0.244,1.607,0.732,2.136S84.012,146.732,84.813,146.732z"/>
	<path d="M98.996,149.276c-0.896,0-1.699-0.152-2.412-0.456c-0.711-0.304-1.319-0.744-1.824-1.32
		c-0.504-0.576-0.892-1.268-1.163-2.076c-0.272-0.807-0.408-1.715-0.408-2.724c0-1.008,0.136-1.911,0.408-2.712
		c0.271-0.8,0.659-1.484,1.163-2.052c0.505-0.567,1.113-1.004,1.824-1.308c0.713-0.305,1.516-0.457,2.412-0.457
		s1.705,0.152,2.424,0.457c0.721,0.304,1.332,0.74,1.836,1.308s0.893,1.252,1.164,2.052c0.272,0.801,0.408,1.704,0.408,2.712
		c0,1.009-0.136,1.917-0.408,2.724c-0.271,0.809-0.66,1.5-1.164,2.076s-1.115,1.017-1.836,1.32
		C100.701,149.124,99.893,149.276,98.996,149.276z M98.996,146.805c0.816,0,1.456-0.248,1.92-0.744
		c0.465-0.496,0.696-1.225,0.696-2.184v-2.328c0-0.944-0.231-1.664-0.696-2.16c-0.464-0.496-1.104-0.744-1.92-0.744
		c-0.8,0-1.432,0.248-1.896,0.744s-0.696,1.216-0.696,2.16v2.328c0,0.959,0.232,1.688,0.696,2.184S98.196,146.805,98.996,146.805z"
		/>
	<path d="M116.275,148.988c-1.056,0-1.832-0.264-2.328-0.792s-0.744-1.272-0.744-2.231v-14.736h3.072v15.287h1.656v2.473H116.275z"
		/>
	<path d="M129.476,148.988c-0.673,0-1.204-0.195-1.597-0.588c-0.392-0.393-0.636-0.916-0.731-1.572h-0.144
		c-0.209,0.816-0.633,1.428-1.272,1.836s-1.433,0.612-2.376,0.612c-1.28,0-2.264-0.335-2.952-1.005s-1.032-1.563-1.032-2.68
		c0-1.291,0.465-2.252,1.393-2.883c0.928-0.63,2.248-0.945,3.96-0.945h2.136v-0.912c0-0.703-0.184-1.247-0.552-1.631
		c-0.368-0.385-0.96-0.576-1.776-0.576c-0.72,0-1.3,0.156-1.74,0.468c-0.439,0.312-0.813,0.685-1.115,1.116l-1.824-1.643
		c0.464-0.724,1.08-1.307,1.848-1.75c0.768-0.441,1.784-0.664,3.049-0.664c1.695,0,2.983,0.384,3.863,1.15
		c0.88,0.766,1.32,1.867,1.32,3.304v5.89h1.248v2.473H129.476z M124.387,147.045c0.688,0,1.272-0.151,1.752-0.453
		c0.48-0.303,0.721-0.747,0.721-1.335v-1.645h-1.968c-1.601,0-2.4,0.509-2.4,1.525v0.405c0,0.508,0.164,0.886,0.492,1.132
		C123.311,146.922,123.779,147.045,124.387,147.045z"/>
	<path d="M-22.791,165.26h3.072v2.064h0.096c0.224-0.721,0.648-1.292,1.272-1.717c0.624-0.423,1.352-0.635,2.184-0.635
		c1.6,0,2.82,0.563,3.66,1.691s1.26,2.74,1.26,4.836c0,2.112-0.42,3.736-1.26,4.872c-0.84,1.137-2.061,1.704-3.66,1.704
		c-0.832,0-1.556-0.216-2.172-0.648c-0.616-0.432-1.044-1.008-1.284-1.728h-0.096v6.888h-3.072V165.26z M-17.15,175.532
		c0.8,0,1.448-0.264,1.944-0.792s0.744-1.24,0.744-2.137v-2.16c0-0.895-0.248-1.611-0.744-2.147s-1.144-0.804-1.944-0.804
		c-0.736,0-1.348,0.184-1.836,0.552c-0.488,0.368-0.732,0.856-0.732,1.464v3.984c0,0.656,0.244,1.16,0.732,1.512
		C-18.499,175.356-17.887,175.532-17.15,175.532z"/>
	<path d="M-8.391,177.788V165.26h3.072v2.592h0.12c0.08-0.336,0.204-0.66,0.372-0.972s0.388-0.588,0.66-0.827
		c0.272-0.24,0.596-0.433,0.972-0.576c0.375-0.145,0.812-0.217,1.308-0.217h0.672v2.904h-0.96c-1.041,0-1.824,0.152-2.352,0.456
		c-0.528,0.304-0.792,0.8-0.792,1.487v7.681H-8.391z"/>
	<path d="M5.89,178.076c-0.896,0-1.7-0.152-2.412-0.456s-1.32-0.744-1.824-1.32c-0.504-0.576-0.892-1.268-1.164-2.076
		c-0.272-0.808-0.408-1.716-0.408-2.724s0.136-1.912,0.408-2.712c0.271-0.8,0.66-1.483,1.164-2.052
		c0.504-0.568,1.112-1.004,1.824-1.309c0.712-0.303,1.516-0.455,2.412-0.455c0.896,0,1.704,0.152,2.424,0.455
		c0.72,0.305,1.332,0.74,1.836,1.309s0.892,1.252,1.164,2.052c0.272,0.8,0.408,1.704,0.408,2.712s-0.136,1.916-0.408,2.724
		c-0.272,0.809-0.66,1.5-1.164,2.076s-1.116,1.017-1.836,1.32C7.594,177.924,6.785,178.076,5.89,178.076z M5.89,175.604
		c0.816,0,1.456-0.248,1.92-0.744c0.464-0.496,0.696-1.225,0.696-2.185v-2.328c0-0.943-0.232-1.664-0.696-2.16
		c-0.464-0.495-1.104-0.744-1.92-0.744c-0.8,0-1.432,0.249-1.896,0.744c-0.464,0.496-0.696,1.217-0.696,2.16v2.328
		c0,0.96,0.232,1.688,0.696,2.185C4.458,175.356,5.089,175.604,5.89,175.604z"/>
	<path d="M25.737,178.844c0,0.656-0.116,1.236-0.348,1.74s-0.612,0.924-1.14,1.26c-0.528,0.336-1.208,0.592-2.04,0.769
		c-0.832,0.176-1.848,0.264-3.048,0.264c-1.056,0-1.952-0.068-2.688-0.204s-1.34-0.328-1.812-0.576
		c-0.472-0.248-0.812-0.556-1.02-0.924s-0.312-0.784-0.312-1.248c0-0.704,0.196-1.252,0.588-1.644
		c0.392-0.393,0.94-0.645,1.644-0.756v-0.265c-0.512-0.128-0.908-0.38-1.188-0.757s-0.42-0.821-0.42-1.334
		c0-0.32,0.064-0.604,0.192-0.853c0.128-0.249,0.3-0.461,0.516-0.638c0.216-0.176,0.46-0.324,0.732-0.444s0.56-0.212,0.864-0.277
		v-0.096c-0.768-0.352-1.34-0.839-1.716-1.463c-0.376-0.623-0.564-1.351-0.564-2.182c0-1.279,0.44-2.307,1.32-3.082
		c0.879-0.775,2.168-1.162,3.864-1.162c0.384,0,0.764,0.023,1.14,0.071c0.375,0.048,0.724,0.128,1.044,0.24v-0.408
		c0-1.216,0.592-1.823,1.776-1.823h1.944v2.352h-2.664v0.336c0.656,0.368,1.144,0.848,1.464,1.439c0.32,0.592,0.48,1.272,0.48,2.041
		c0,1.264-0.436,2.279-1.308,3.047c-0.872,0.769-2.164,1.152-3.876,1.152c-0.736,0-1.376-0.072-1.92-0.216
		c-0.24,0.112-0.448,0.26-0.624,0.444c-0.176,0.184-0.264,0.412-0.264,0.684c0,0.624,0.544,0.937,1.632,0.937h3.36
		c1.536,0,2.652,0.315,3.348,0.947C25.389,176.849,25.737,177.725,25.737,178.844z M22.857,179.204c0-0.4-0.16-0.712-0.48-0.936
		c-0.32-0.225-0.873-0.337-1.656-0.337h-4.272c-0.432,0.32-0.648,0.752-0.648,1.297c0,0.479,0.2,0.855,0.6,1.128
		c0.399,0.271,1.08,0.407,2.04,0.407h1.536c1.008,0,1.74-0.128,2.196-0.384S22.857,179.732,22.857,179.204z M19.161,171.309
		c1.504,0,2.256-0.637,2.256-1.91v-0.405c0-1.272-0.752-1.909-2.256-1.909s-2.256,0.637-2.256,1.909v0.405
		C16.905,170.672,17.657,171.309,19.161,171.309z"/>
	<path d="M27.513,177.788V165.26h3.072v2.592h0.12c0.08-0.336,0.204-0.66,0.372-0.972s0.388-0.588,0.66-0.827
		c0.272-0.24,0.596-0.433,0.972-0.576c0.375-0.145,0.812-0.217,1.308-0.217h0.672v2.904h-0.96c-1.041,0-1.824,0.152-2.352,0.456
		c-0.528,0.304-0.792,0.8-0.792,1.487v7.681H27.513z"/>
	<path d="M45.897,177.788c-0.672,0-1.204-0.195-1.596-0.588c-0.392-0.392-0.636-0.916-0.732-1.572h-0.144
		c-0.208,0.816-0.632,1.428-1.272,1.836c-0.64,0.408-1.432,0.612-2.376,0.612c-1.28,0-2.264-0.335-2.952-1.005
		s-1.032-1.563-1.032-2.68c0-1.291,0.464-2.253,1.392-2.882c0.928-0.631,2.248-0.945,3.96-0.945h2.136v-0.912
		c0-0.704-0.184-1.248-0.552-1.633c-0.369-0.383-0.96-0.576-1.776-0.576c-0.72,0-1.3,0.156-1.74,0.469
		c-0.44,0.313-0.813,0.684-1.116,1.116l-1.824-1.642c0.464-0.725,1.08-1.309,1.848-1.75c0.768-0.443,1.784-0.664,3.048-0.664
		c1.696,0,2.984,0.383,3.864,1.148c0.88,0.768,1.32,1.868,1.32,3.305v5.891h1.248v2.472H45.897z M40.809,175.844
		c0.688,0,1.272-0.15,1.752-0.452c0.48-0.302,0.72-0.747,0.72-1.335v-1.645h-1.968c-1.6,0-2.4,0.508-2.4,1.525v0.405
		c0,0.509,0.164,0.886,0.492,1.132C39.733,175.721,40.201,175.844,40.809,175.844z"/>
	<path d="M50.097,177.788V165.26h3.072v2.088h0.12c0.24-0.655,0.623-1.215,1.152-1.68c0.527-0.464,1.264-0.695,2.207-0.695
		c0.864,0,1.608,0.207,2.232,0.623s1.088,1.049,1.393,1.896h0.047c0.225-0.704,0.668-1.3,1.332-1.788
		c0.664-0.487,1.5-0.731,2.508-0.731c1.232,0,2.181,0.424,2.845,1.271c0.663,0.848,0.996,2.057,0.996,3.624v7.92h-3.072v-7.608
		c0-1.791-0.672-2.688-2.017-2.688c-0.303,0-0.596,0.044-0.875,0.132c-0.28,0.089-0.528,0.216-0.744,0.384
		c-0.217,0.168-0.389,0.377-0.516,0.625c-0.129,0.248-0.192,0.539-0.192,0.875v8.28h-3.072v-7.608c0-1.791-0.672-2.688-2.017-2.688
		c-0.287,0-0.572,0.044-0.852,0.132c-0.279,0.089-0.527,0.216-0.744,0.384c-0.216,0.168-0.392,0.377-0.527,0.625
		c-0.137,0.248-0.204,0.539-0.204,0.875v8.28H50.097z"/>
	<path d="M80.625,177.788c-0.673,0-1.205-0.195-1.597-0.588c-0.392-0.392-0.636-0.916-0.731-1.572h-0.145
		c-0.208,0.816-0.633,1.428-1.271,1.836c-0.641,0.408-1.433,0.612-2.377,0.612c-1.279,0-2.264-0.335-2.951-1.005
		c-0.688-0.67-1.032-1.563-1.032-2.68c0-1.291,0.464-2.253,1.392-2.882c0.928-0.631,2.248-0.945,3.961-0.945h2.135v-0.912
		c0-0.704-0.184-1.248-0.551-1.633c-0.369-0.383-0.961-0.576-1.777-0.576c-0.719,0-1.299,0.156-1.739,0.469
		s-0.813,0.684-1.116,1.116L71,167.387c0.465-0.725,1.08-1.309,1.848-1.75c0.769-0.443,1.785-0.664,3.049-0.664
		c1.695,0,2.984,0.383,3.863,1.148c0.881,0.768,1.32,1.868,1.32,3.305v5.891h1.248v2.472H80.625z M75.536,175.844
		c0.688,0,1.272-0.15,1.752-0.452c0.48-0.302,0.72-0.747,0.72-1.335v-1.645h-1.967c-1.601,0-2.4,0.508-2.4,1.525v0.405
		c0,0.509,0.164,0.886,0.492,1.132C74.46,175.721,74.928,175.844,75.536,175.844z"/>
	<path d="M89.769,178.076c-0.929,0-1.753-0.152-2.472-0.456c-0.721-0.304-1.324-0.744-1.813-1.32s-0.86-1.268-1.116-2.076
		c-0.256-0.808-0.384-1.716-0.384-2.724s0.128-1.912,0.384-2.712s0.628-1.483,1.116-2.052s1.092-1.004,1.813-1.309
		c0.719-0.303,1.543-0.455,2.472-0.455c1.264,0,2.308,0.279,3.132,0.84s1.42,1.336,1.788,2.328l-2.521,1.127
		c-0.144-0.527-0.412-0.963-0.804-1.308c-0.392-0.344-0.924-0.517-1.596-0.517c-0.864,0-1.509,0.273-1.933,0.816
		c-0.424,0.545-0.636,1.256-0.636,2.137v2.279c0,0.881,0.212,1.589,0.636,2.124c0.424,0.536,1.068,0.805,1.933,0.805
		c0.735,0,1.304-0.188,1.704-0.564c0.399-0.376,0.711-0.844,0.936-1.404l2.352,1.128c-0.416,1.104-1.047,1.933-1.896,2.484
		S90.984,178.076,89.769,178.076z"/>
	<path d="M98.672,163.436c-0.641,0-1.1-0.144-1.38-0.432c-0.28-0.287-0.42-0.656-0.42-1.104v-0.48c0-0.447,0.14-0.816,0.42-1.104
		c0.28-0.288,0.739-0.432,1.38-0.432c0.624,0,1.08,0.144,1.368,0.432c0.288,0.287,0.432,0.656,0.432,1.104v0.48
		c0,0.447-0.144,0.816-0.432,1.104C99.752,163.292,99.296,163.436,98.672,163.436z M97.136,165.26h3.072v12.528h-3.072V165.26z"/>
	<path d="M108.729,178.076c-0.896,0-1.701-0.152-2.412-0.456c-0.713-0.304-1.32-0.744-1.824-1.32s-0.893-1.268-1.164-2.076
		c-0.272-0.808-0.408-1.716-0.408-2.724s0.136-1.912,0.408-2.712c0.271-0.8,0.66-1.483,1.164-2.052s1.111-1.004,1.824-1.309
		c0.711-0.303,1.516-0.455,2.412-0.455c0.895,0,1.703,0.152,2.424,0.455c0.72,0.305,1.332,0.74,1.836,1.309s0.891,1.252,1.164,2.052
		c0.271,0.8,0.408,1.704,0.408,2.712s-0.137,1.916-0.408,2.724c-0.273,0.809-0.66,1.5-1.164,2.076s-1.116,1.017-1.836,1.32
		C110.432,177.924,109.623,178.076,108.729,178.076z M108.729,175.604c0.815,0,1.455-0.248,1.92-0.744
		c0.463-0.496,0.695-1.225,0.695-2.185v-2.328c0-0.943-0.232-1.664-0.695-2.16c-0.465-0.495-1.104-0.744-1.92-0.744
		c-0.801,0-1.433,0.249-1.896,0.744c-0.465,0.496-0.696,1.217-0.696,2.16v2.328c0,0.96,0.231,1.688,0.696,2.185
		C107.296,175.356,107.928,175.604,108.729,175.604z M109.064,163.844l-1.849-0.888l2.28-4.487l2.592,1.271L109.064,163.844z"/>
	<path d="M117.271,177.788V165.26h3.072v2.088h0.119c0.256-0.672,0.66-1.235,1.213-1.691c0.552-0.456,1.316-0.684,2.292-0.684
		c1.296,0,2.288,0.424,2.976,1.271s1.032,2.057,1.032,3.624v7.92h-3.071v-7.608c0-0.896-0.16-1.567-0.48-2.016
		c-0.32-0.447-0.849-0.672-1.584-0.672c-0.32,0-0.629,0.044-0.924,0.132c-0.297,0.089-0.561,0.216-0.793,0.384
		c-0.231,0.168-0.42,0.377-0.563,0.625s-0.216,0.539-0.216,0.875v8.28H117.271z"/>
</g>
</svg>
