<?xml version="1.0" encoding="utf-8"?>
<!-- Generator: Adobe Illustrator 16.0.3, SVG Export Plug-In . SVG Version: 6.00 Build 0)  -->
<!DOCTYPE svg PUBLIC "-//W3C//DTD SVG 1.1//EN" "http://www.w3.org/Graphics/SVG/1.1/DTD/svg11.dtd">
<svg version="1.1" id="Capa_1" xmlns="http://www.w3.org/2000/svg" xmlns:xlink="http://www.w3.org/1999/xlink" x="0px" y="0px"
	 width="191.333px" height="159.167px" viewBox="-41.5 0 191.333 159.167" enable-background="new -41.5 0 191.333 159.167"
	 xml:space="preserve">
<title>icon1</title>
<desc>Created with Sketch.</desc>
<g id="Landing-podcast">
	<g id="Landing-podcast_Mobile" transform="translate(-108.000000, -4569.000000)">
		<g id="topicos" transform="translate(0.000000, 4004.000000)">
			<g id="_x33_" transform="translate(0.000000, 552.000000)">
				<g id="icon3" transform="translate(108.000000, 13.000000)">
					<path id="Shape" fill="#0000EC" d="M10.383,104h86.668c4.777,0,8.666-3.888,8.666-8.666V93.6h-0.012
						c0-0.204-0.025-0.41-0.098-0.607L95.316,65.551V8.667C95.316,3.888,91.428,0,86.65,0H20.783c-4.779,0-8.667,3.888-8.667,8.667
						v56.884L1.826,92.992c-0.073,0.197-0.097,0.403-0.097,0.607H1.716v1.734C1.716,100.112,5.604,104,10.383,104z M97.051,100.533
						H10.383c-2.867,0-5.2-2.333-5.2-5.199h33.949l1.226,1.225c0.324,0.326,0.766,0.508,1.226,0.508H65.85
						c0.459,0,0.902-0.182,1.227-0.508l1.225-1.225h33.949C102.25,98.2,99.916,100.533,97.051,100.533z M20.783,3.467H86.65
						c2.867,0,5.199,2.333,5.199,5.2v55.466H15.583V8.667C15.583,5.8,17.916,3.467,20.783,3.467z M15.051,67.6h77.332l9.1,24.268
						H67.584c-0.461,0-0.902,0.182-1.227,0.508L65.133,93.6H42.301l-1.226-1.225c-0.324-0.326-0.766-0.508-1.226-0.508H5.951
						L15.051,67.6z"/>
					<rect id="Rectangle" x="13.85" y="84.934" fill="#0000EC" width="6.934" height="3.467"/>
					<rect id="Rectangle_1_" x="25.983" y="84.934" fill="#0000EC" width="6.934" height="3.467"/>
					<rect id="Rectangle_2_" x="38.116" y="84.934" fill="#0000EC" width="31.2" height="3.467"/>
					<rect id="Rectangle_3_" x="74.516" y="84.934" fill="#0000EC" width="6.934" height="3.467"/>
					<rect id="Rectangle_4_" x="86.65" y="84.934" fill="#0000EC" width="6.934" height="3.467"/>
					<rect id="Rectangle_5_" x="15.583" y="78" fill="#0000EC" width="10.4" height="3.467"/>
					<rect id="Rectangle_6_" x="31.183" y="78" fill="#0000EC" width="6.933" height="3.467"/>
					<rect id="Rectangle_7_" x="43.316" y="78" fill="#0000EC" width="6.934" height="3.467"/>
					<rect id="Rectangle_8_" x="55.449" y="78" fill="#0000EC" width="6.934" height="3.467"/>
					<rect id="Rectangle_9_" x="67.584" y="78" fill="#0000EC" width="6.932" height="3.467"/>
					<rect id="Rectangle_10_" x="79.717" y="78" fill="#0000EC" width="12.133" height="3.467"/>
					<rect id="Rectangle_11_" x="25.983" y="71.066" fill="#0000EC" width="3.467" height="3.467"/>
					<rect id="Rectangle_12_" x="19.05" y="71.066" fill="#0000EC" width="3.466" height="3.467"/>
					<rect id="Rectangle_13_" x="34.649" y="71.066" fill="#0000EC" width="6.934" height="3.467"/>
					<rect id="Rectangle_14_" x="46.783" y="71.066" fill="#0000EC" width="6.934" height="3.467"/>
					<rect id="Rectangle_15_" x="58.916" y="71.066" fill="#0000EC" width="6.934" height="3.467"/>
					<rect id="Rectangle_16_" x="71.051" y="71.066" fill="#0000EC" width="6.932" height="3.467"/>
					<rect id="Rectangle_17_" x="83.184" y="71.066" fill="#0000EC" width="6.934" height="3.467"/>
					<path id="Shape_1_" fill="#0000EC" d="M20.783,60.666H86.65c0.957,0,1.732-0.775,1.732-1.732V8.667
						c0-0.957-0.775-1.733-1.732-1.733H20.783c-0.957,0-1.733,0.776-1.733,1.733v50.267C19.05,59.891,19.826,60.666,20.783,60.666z
						 M22.516,10.4h62.4v46.8h-62.4V10.4z"/>
					<path id="Path_5_" fill="#00F3BB" d="M31.691,14.375l-5.2,5.2c-0.678,0.678-0.678,1.773,0,2.451l5.2,5.2l2.451-2.451
						L30.167,20.8l3.974-3.975L31.691,14.375z"/>
					<path id="Path_1_" fill="#00F3BB" d="M51.475,14.375l-2.45,2.451l3.974,3.975l-3.974,3.975l2.45,2.451l5.201-5.2
						c0.678-0.678,0.678-1.773,0-2.451L51.475,14.375z"/>
					<path id="Path_2_" fill="#00F3BB" d="M54.225,38.641l-5.2,5.2c-0.678,0.678-0.678,1.773,0,2.451l5.2,5.2l2.451-2.451
						l-3.975-3.975l3.975-3.974L54.225,38.641z"/>
					<path id="Path_3_" fill="#00F3BB" d="M74.008,38.641l-2.449,2.451l3.975,3.974l-3.975,3.975l2.449,2.451l5.201-5.2
						c0.678-0.678,0.678-1.773,0-2.451L74.008,38.641z"/>
					<polygon id="Rectangle_18_" fill="#00F3BB" points="59.098,49.492 64.297,39.093 67.398,40.643 62.197,51.042 					"/>
					<rect id="Rectangle_19_" x="43.316" y="48.533" fill="#00F3BB" width="3.467" height="3.467"/>
					<rect id="Rectangle_20_" x="36.383" y="48.533" fill="#00F3BB" width="3.467" height="3.467"/>
					<rect id="Rectangle_21_" x="29.45" y="48.533" fill="#00F3BB" width="3.467" height="3.467"/>
					<path id="Path_4_" fill="#00F3BB" d="M67.584,22.533h-3.467V26h1.732v5.2h3.467v-6.934
						C69.316,23.31,68.539,22.533,67.584,22.533z"/>
					<rect id="Rectangle_22_" x="64.117" y="15.6" fill="#00F3BB" width="3.467" height="3.466"/>
				</g>
			</g>
		</g>
	</g>
</g>
<g>
	<path d="M-37.327,132.525h7.752c0.688,0,1.308,0.104,1.86,0.312c0.552,0.208,1.02,0.496,1.404,0.864
		c0.384,0.368,0.676,0.82,0.876,1.355c0.2,0.537,0.3,1.125,0.3,1.764c0,0.641-0.084,1.181-0.252,1.621
		c-0.168,0.439-0.393,0.803-0.672,1.092c-0.28,0.287-0.6,0.504-0.96,0.647c-0.36,0.144-0.732,0.225-1.116,0.24v0.144
		c0.368,0,0.764,0.072,1.188,0.217c0.424,0.144,0.816,0.371,1.176,0.684s0.66,0.712,0.9,1.2c0.24,0.488,0.36,1.092,0.36,1.812
		c0,0.672-0.108,1.301-0.324,1.885s-0.516,1.092-0.9,1.523c-0.384,0.432-0.84,0.771-1.368,1.02
		c-0.528,0.249-1.104,0.373-1.728,0.373h-8.496V132.525z M-34.158,139.509h3.912c0.576,0,1.024-0.155,1.344-0.468
		c0.32-0.313,0.48-0.748,0.48-1.309v-0.744c0-0.559-0.16-0.996-0.48-1.308c-0.32-0.312-0.768-0.468-1.344-0.468h-3.912V139.509z
		 M-34.158,146.589h4.416c0.608,0,1.08-0.156,1.416-0.468c0.336-0.313,0.504-0.764,0.504-1.356v-0.815
		c0-0.592-0.168-1.049-0.504-1.368c-0.336-0.32-0.808-0.479-1.416-0.479h-4.416V146.589z"/>
	<path d="M-12.39,149.277c-0.672,0-1.204-0.196-1.596-0.588c-0.392-0.393-0.636-0.916-0.732-1.572h-0.144
		c-0.208,0.815-0.632,1.428-1.272,1.836c-0.64,0.408-1.432,0.611-2.376,0.611c-1.28,0-2.264-0.334-2.952-1.004
		s-1.032-1.563-1.032-2.68c0-1.292,0.464-2.253,1.392-2.883c0.928-0.631,2.248-0.945,3.96-0.945h2.136v-0.912
		c0-0.703-0.184-1.248-0.552-1.632c-0.369-0.384-0.96-0.576-1.776-0.576c-0.72,0-1.3,0.156-1.74,0.468
		c-0.44,0.313-0.813,0.685-1.116,1.117l-1.824-1.643c0.464-0.725,1.08-1.308,1.848-1.75c0.768-0.442,1.784-0.664,3.048-0.664
		c1.696,0,2.984,0.383,3.864,1.149s1.32,1.868,1.32,3.304v5.891h1.248v2.473H-12.39z M-17.479,147.333
		c0.688,0,1.272-0.151,1.752-0.452c0.48-0.303,0.72-0.748,0.72-1.336V143.9h-1.968c-1.6,0-2.4,0.509-2.4,1.525v0.406
		c0,0.508,0.164,0.885,0.492,1.131C-18.555,147.21-18.086,147.333-17.479,147.333z"/>
	<path d="M-4.087,149.564c-1.2,0-2.208-0.203-3.024-0.611s-1.536-0.973-2.16-1.692l1.872-1.823c0.464,0.527,0.972,0.943,1.524,1.248
		c0.552,0.303,1.188,0.455,1.908,0.455c0.736,0,1.268-0.127,1.596-0.384c0.328-0.256,0.492-0.608,0.492-1.056
		c0-0.368-0.116-0.66-0.348-0.877c-0.232-0.215-0.628-0.363-1.188-0.443l-1.248-0.168c-1.36-0.176-2.396-0.564-3.108-1.164
		s-1.068-1.477-1.068-2.628c0-0.608,0.112-1.155,0.336-1.644s0.544-0.904,0.96-1.248s0.916-0.608,1.5-0.793
		c0.584-0.184,1.236-0.275,1.956-0.275c0.608,0,1.148,0.044,1.62,0.132c0.472,0.089,0.9,0.216,1.284,0.384
		c0.384,0.168,0.735,0.377,1.056,0.625c0.32,0.248,0.632,0.523,0.936,0.827l-1.8,1.8c-0.368-0.384-0.808-0.703-1.32-0.959
		s-1.072-0.385-1.68-0.385c-0.672,0-1.156,0.12-1.452,0.359c-0.296,0.24-0.444,0.553-0.444,0.937c0,0.417,0.124,0.732,0.372,0.948
		c0.248,0.216,0.668,0.372,1.26,0.468l1.272,0.168c2.704,0.384,4.056,1.616,4.056,3.696c0,0.608-0.124,1.164-0.372,1.668
		s-0.596,0.936-1.044,1.296c-0.448,0.36-0.988,0.64-1.62,0.84C-2.595,149.465-3.303,149.564-4.087,149.564z"/>
	<path d="M8.849,149.564c-0.928,0-1.756-0.156-2.484-0.468s-1.344-0.751-1.848-1.319c-0.504-0.568-0.892-1.256-1.164-2.064
		c-0.272-0.808-0.408-1.716-0.408-2.725c0-0.991,0.132-1.887,0.396-2.688c0.264-0.8,0.644-1.484,1.14-2.052
		c0.496-0.567,1.104-1.009,1.824-1.32c0.72-0.312,1.536-0.468,2.448-0.468c0.976,0,1.824,0.168,2.544,0.504
		c0.72,0.336,1.312,0.792,1.776,1.368c0.464,0.575,0.812,1.244,1.044,2.004c0.232,0.761,0.348,1.571,0.348,2.437v1.008H6.137v0.31
		c0,0.905,0.256,1.632,0.768,2.181c0.512,0.548,1.272,0.821,2.28,0.821c0.768,0,1.396-0.159,1.884-0.476
		c0.488-0.318,0.924-0.723,1.308-1.216l1.656,1.853c-0.512,0.723-1.212,1.288-2.1,1.697
		C11.045,149.359,10.017,149.564,8.849,149.564z M8.801,138.765c-0.816,0-1.464,0.272-1.944,0.816s-0.72,1.247-0.72,2.112v0.191
		h5.136v-0.216c0-0.864-0.212-1.563-0.636-2.101C10.213,139.033,9.601,138.765,8.801,138.765z"/>
	<path d="M21.281,149.564c-1.2,0-2.208-0.203-3.024-0.611s-1.536-0.973-2.16-1.692l1.872-1.823c0.464,0.527,0.972,0.943,1.524,1.248
		c0.552,0.303,1.188,0.455,1.908,0.455c0.736,0,1.268-0.127,1.596-0.384c0.328-0.256,0.492-0.608,0.492-1.056
		c0-0.368-0.116-0.66-0.348-0.877c-0.232-0.215-0.628-0.363-1.188-0.443l-1.248-0.168c-1.36-0.176-2.396-0.564-3.108-1.164
		s-1.068-1.477-1.068-2.628c0-0.608,0.112-1.155,0.336-1.644s0.544-0.904,0.96-1.248s0.916-0.608,1.5-0.793
		c0.584-0.184,1.236-0.275,1.956-0.275c0.608,0,1.148,0.044,1.62,0.132c0.472,0.089,0.9,0.216,1.284,0.384
		c0.384,0.168,0.735,0.377,1.056,0.625c0.32,0.248,0.632,0.523,0.936,0.827l-1.8,1.8c-0.368-0.384-0.808-0.703-1.32-0.959
		s-1.072-0.385-1.68-0.385c-0.672,0-1.156,0.12-1.452,0.359c-0.296,0.24-0.444,0.553-0.444,0.937c0,0.417,0.124,0.732,0.372,0.948
		c0.248,0.216,0.668,0.372,1.26,0.468l1.272,0.168c2.704,0.384,4.056,1.616,4.056,3.696c0,0.608-0.124,1.164-0.372,1.668
		s-0.596,0.936-1.044,1.296c-0.448,0.36-0.988,0.64-1.62,0.84C22.772,149.465,22.064,149.564,21.281,149.564z"/>
	<path d="M42.592,147.189h-0.12c-0.225,0.719-0.648,1.295-1.272,1.728c-0.624,0.432-1.353,0.647-2.184,0.647
		c-1.584,0-2.796-0.567-3.636-1.703c-0.84-1.137-1.26-2.76-1.26-4.873c0-2.096,0.42-3.707,1.26-4.836
		c0.84-1.127,2.052-1.691,3.636-1.691c0.832,0,1.56,0.213,2.184,0.636c0.624,0.425,1.047,0.996,1.272,1.716h0.12v-7.295h3.072v17.76
		h-3.072V147.189z M40,147.021c0.736,0,1.352-0.176,1.848-0.529c0.496-0.352,0.744-0.855,0.744-1.512v-3.983
		c0-0.608-0.248-1.097-0.744-1.464c-0.496-0.368-1.112-0.553-1.848-0.553c-0.8,0-1.444,0.269-1.932,0.805s-0.732,1.252-0.732,2.147
		v2.16c0,0.896,0.244,1.608,0.732,2.136C38.557,146.757,39.2,147.021,40,147.021z"/>
	<path d="M54.28,149.564c-0.928,0-1.756-0.156-2.484-0.468s-1.344-0.751-1.848-1.319c-0.504-0.568-0.892-1.256-1.164-2.064
		c-0.272-0.808-0.408-1.716-0.408-2.725c0-0.991,0.132-1.887,0.396-2.688c0.264-0.8,0.644-1.484,1.14-2.052
		c0.496-0.567,1.104-1.009,1.824-1.32c0.72-0.312,1.536-0.468,2.448-0.468c0.976,0,1.823,0.168,2.544,0.504
		c0.72,0.336,1.312,0.792,1.775,1.368c0.465,0.575,0.813,1.244,1.045,2.004c0.231,0.761,0.348,1.571,0.348,2.437v1.008h-8.328v0.31
		c0,0.905,0.256,1.632,0.768,2.181c0.511,0.548,1.272,0.821,2.28,0.821c0.769,0,1.396-0.159,1.884-0.476
		c0.488-0.318,0.924-0.723,1.309-1.216l1.656,1.853c-0.513,0.723-1.213,1.288-2.101,1.697
		C56.477,149.359,55.448,149.564,54.28,149.564z M54.232,138.765c-0.816,0-1.464,0.272-1.944,0.816s-0.72,1.247-0.72,2.112v0.191
		h5.137v-0.216c0-0.864-0.213-1.563-0.637-2.101C55.645,139.033,55.032,138.765,54.232,138.765z"/>
	<path d="M65.681,149.277c-1.056,0-1.833-0.265-2.328-0.793c-0.496-0.527-0.744-1.271-0.744-2.231v-14.735h3.072v15.287h1.655v2.473
		H65.681z"/>
	<path d="M80.272,149.564c-0.929,0-1.753-0.152-2.472-0.455c-0.721-0.305-1.324-0.744-1.813-1.32s-0.86-1.268-1.116-2.076
		c-0.256-0.808-0.384-1.716-0.384-2.725c0-1.008,0.128-1.911,0.384-2.711c0.256-0.801,0.628-1.484,1.116-2.053
		c0.488-0.567,1.092-1.004,1.813-1.308c0.719-0.304,1.543-0.456,2.472-0.456c1.264,0,2.308,0.28,3.132,0.84
		c0.824,0.561,1.42,1.336,1.788,2.328l-2.521,1.128c-0.144-0.528-0.412-0.964-0.804-1.308s-0.924-0.517-1.596-0.517
		c-0.864,0-1.509,0.272-1.933,0.816s-0.636,1.256-0.636,2.136v2.28c0,0.88,0.212,1.588,0.636,2.124s1.068,0.804,1.933,0.804
		c0.735,0,1.304-0.188,1.704-0.563c0.399-0.376,0.711-0.844,0.936-1.404l2.352,1.128c-0.416,1.104-1.047,1.933-1.896,2.483
		C82.52,149.289,81.488,149.564,80.272,149.564z"/>
	<path d="M92.488,149.564c-0.896,0-1.701-0.152-2.412-0.455c-0.713-0.305-1.32-0.744-1.824-1.32s-0.893-1.268-1.164-2.076
		c-0.272-0.808-0.408-1.716-0.408-2.725c0-1.008,0.136-1.911,0.408-2.711c0.271-0.801,0.66-1.484,1.164-2.053
		c0.504-0.567,1.111-1.004,1.824-1.308c0.711-0.304,1.516-0.456,2.412-0.456c0.895,0,1.703,0.152,2.424,0.456
		c0.72,0.304,1.332,0.74,1.836,1.308c0.504,0.568,0.891,1.252,1.164,2.053c0.271,0.8,0.408,1.703,0.408,2.711
		c0,1.009-0.137,1.917-0.408,2.725c-0.273,0.809-0.66,1.5-1.164,2.076s-1.116,1.016-1.836,1.32
		C94.191,149.412,93.383,149.564,92.488,149.564z M92.488,147.093c0.815,0,1.455-0.247,1.92-0.744
		c0.463-0.495,0.695-1.224,0.695-2.184v-2.328c0-0.944-0.232-1.664-0.695-2.16c-0.465-0.495-1.104-0.744-1.92-0.744
		c-0.801,0-1.433,0.249-1.896,0.744c-0.465,0.496-0.696,1.216-0.696,2.16v2.328c0,0.96,0.231,1.688,0.696,2.184
		C91.056,146.846,91.688,147.093,92.488,147.093z M92.824,135.333l-1.849-0.888l2.28-4.488l2.592,1.271L92.824,135.333z"/>
	<path d="M108.807,147.189h-0.119c-0.225,0.719-0.648,1.295-1.271,1.728c-0.625,0.432-1.354,0.647-2.185,0.647
		c-1.584,0-2.796-0.567-3.636-1.703c-0.84-1.137-1.26-2.76-1.26-4.873c0-2.096,0.42-3.707,1.26-4.836
		c0.84-1.127,2.052-1.691,3.636-1.691c0.831,0,1.56,0.213,2.185,0.636c0.623,0.425,1.047,0.996,1.271,1.716h0.119v-7.295h3.072
		v17.76h-3.072V147.189z M106.215,147.021c0.736,0,1.353-0.176,1.849-0.529c0.495-0.352,0.743-0.855,0.743-1.512v-3.983
		c0-0.608-0.248-1.097-0.743-1.464c-0.496-0.368-1.112-0.553-1.849-0.553c-0.8,0-1.443,0.269-1.932,0.805s-0.732,1.252-0.732,2.147
		v2.16c0,0.896,0.244,1.608,0.732,2.136C104.771,146.757,105.415,147.021,106.215,147.021z"/>
	<path d="M116.967,134.925c-0.64,0-1.1-0.144-1.379-0.433c-0.281-0.287-0.42-0.655-0.42-1.104v-0.48c0-0.447,0.139-0.815,0.42-1.104
		c0.279-0.287,0.739-0.432,1.379-0.432c0.625,0,1.08,0.145,1.369,0.432c0.287,0.288,0.432,0.656,0.432,1.104v0.48
		c0,0.448-0.145,0.816-0.432,1.104C118.047,134.781,117.592,134.925,116.967,134.925z M115.432,136.749h3.072v12.528h-3.072V136.749
		z"/>
	<path d="M133.359,150.333c0,0.655-0.117,1.235-0.349,1.739s-0.612,0.925-1.14,1.261c-0.528,0.336-1.209,0.592-2.041,0.769
		c-0.832,0.176-1.848,0.264-3.047,0.264c-1.057,0-1.953-0.068-2.688-0.205c-0.735-0.135-1.341-0.328-1.812-0.575
		c-0.473-0.249-0.813-0.556-1.021-0.925c-0.208-0.367-0.312-0.783-0.312-1.247c0-0.704,0.195-1.253,0.588-1.644
		c0.392-0.393,0.939-0.645,1.644-0.757v-0.264c-0.513-0.128-0.908-0.381-1.188-0.757c-0.279-0.377-0.42-0.821-0.42-1.334
		c0-0.32,0.064-0.605,0.192-0.854s0.3-0.461,0.517-0.637c0.216-0.177,0.459-0.324,0.731-0.445c0.272-0.119,0.56-0.212,0.864-0.276
		v-0.096c-0.768-0.353-1.34-0.839-1.717-1.463c-0.375-0.624-0.563-1.351-0.563-2.183c0-1.278,0.44-2.306,1.32-3.081
		s2.168-1.163,3.864-1.163c0.384,0,0.764,0.023,1.14,0.072c0.376,0.048,0.724,0.128,1.044,0.24v-0.408
		c0-1.217,0.592-1.824,1.775-1.824h1.945v2.352h-2.664v0.336c0.655,0.369,1.143,0.849,1.463,1.44s0.48,1.272,0.48,2.04
		c0,1.264-0.436,2.279-1.309,3.048c-0.871,0.769-2.164,1.151-3.875,1.151c-0.736,0-1.377-0.071-1.92-0.215
		c-0.24,0.111-0.449,0.26-0.625,0.443s-0.264,0.412-0.264,0.684c0,0.625,0.544,0.937,1.633,0.937h3.359
		c1.536,0,2.652,0.315,3.348,0.948C133.011,148.337,133.359,149.213,133.359,150.333z M130.479,150.693
		c0-0.4-0.16-0.713-0.479-0.937c-0.32-0.224-0.872-0.336-1.656-0.336h-4.272c-0.432,0.319-0.647,0.752-0.647,1.296
		c0,0.48,0.2,0.855,0.601,1.128c0.398,0.272,1.08,0.408,2.039,0.408h1.536c1.009,0,1.74-0.128,2.196-0.384
		S130.479,151.221,130.479,150.693z M126.783,142.797c1.504,0,2.256-0.637,2.256-1.909v-0.405c0-1.273-0.752-1.91-2.256-1.91
		s-2.256,0.637-2.256,1.91v0.405C124.527,142.16,125.279,142.797,126.783,142.797z"/>
	<path d="M139.959,149.564c-0.896,0-1.699-0.152-2.412-0.455c-0.711-0.305-1.319-0.744-1.824-1.32
		c-0.504-0.576-0.892-1.268-1.163-2.076c-0.272-0.808-0.408-1.716-0.408-2.725c0-1.008,0.136-1.911,0.408-2.711
		c0.271-0.801,0.659-1.484,1.163-2.053c0.505-0.567,1.113-1.004,1.824-1.308c0.713-0.304,1.516-0.456,2.412-0.456
		s1.705,0.152,2.424,0.456c0.721,0.304,1.332,0.74,1.836,1.308c0.504,0.568,0.893,1.252,1.164,2.053
		c0.272,0.8,0.408,1.703,0.408,2.711c0,1.009-0.136,1.917-0.408,2.725c-0.271,0.809-0.66,1.5-1.164,2.076s-1.115,1.016-1.836,1.32
		C141.664,149.412,140.855,149.564,139.959,149.564z M139.959,147.093c0.816,0,1.456-0.247,1.92-0.744
		c0.465-0.495,0.696-1.224,0.696-2.184v-2.328c0-0.944-0.231-1.664-0.696-2.16c-0.464-0.495-1.104-0.744-1.92-0.744
		c-0.8,0-1.432,0.249-1.896,0.744c-0.464,0.496-0.696,1.216-0.696,2.16v2.328c0,0.96,0.232,1.688,0.696,2.184
		C138.527,146.846,139.159,147.093,139.959,147.093z"/>
</g>
</svg>
