<?xml version="1.0" encoding="utf-8"?>
<!-- Generator: Adobe Illustrator 17.0.0, SVG Export Plug-In . SVG Version: 6.00 Build 0)  -->
<!DOCTYPE svg PUBLIC "-//W3C//DTD SVG 1.1//EN" "http://www.w3.org/Graphics/SVG/1.1/DTD/svg11.dtd">
<svg version="1.1" id="Layer_1" xmlns="http://www.w3.org/2000/svg" xmlns:xlink="http://www.w3.org/1999/xlink" x="0px" y="0px"
	 width="2500px" height="2500px" viewBox="0 0 2500 2500" enable-background="new 0 0 2500 2500" xml:space="preserve">
<path fill="#060A24" d="M833.401,1250c0-230.109,186.49-416.7,416.599-416.7s416.7,186.591,416.7,416.7s-186.591,416.7-416.7,416.7
	S833.401,1480.109,833.401,1250 M608.138,1250c0,354.503,287.359,641.862,641.862,641.862s641.862-287.359,641.862-641.862
	S1604.503,608.138,1250,608.138S608.138,895.497,608.138,1250 M1767.266,582.694c0,82.795,67.145,150.04,150.04,150.04
	c82.795,0,150.04-67.246,150.04-150.04s-67.145-149.939-150.04-149.939S1767.266,499.899,1767.266,582.694 M744.951,2267.468
	c-121.87-5.553-188.106-25.848-232.128-43.013c-58.36-22.718-99.96-49.778-143.78-93.498c-43.72-43.72-70.88-85.319-93.498-143.679
	c-17.165-44.023-37.46-110.258-43.013-232.128c-6.058-131.765-7.27-171.345-7.27-505.149s1.313-373.284,7.27-505.149
	c5.553-121.87,25.949-188.005,43.013-232.128c22.718-58.36,49.778-99.96,93.498-143.78c43.72-43.72,85.319-70.88,143.78-93.498
	c44.023-17.165,110.258-37.46,232.128-43.013c131.765-6.058,171.345-7.27,505.049-7.27c333.804,0,373.283,1.313,505.149,7.27
	c121.87,5.553,188.005,25.949,232.128,43.013c58.36,22.617,99.96,49.778,143.78,93.498c43.72,43.72,70.78,85.42,93.498,143.78
	c17.165,44.023,37.46,110.258,43.013,232.128c6.058,131.866,7.27,171.345,7.27,505.149c0,333.703-1.212,373.283-7.27,505.149
	c-5.553,121.87-25.949,188.106-43.013,232.128c-22.718,58.36-49.778,99.959-93.498,143.679c-43.72,43.72-85.42,70.78-143.78,93.498
	c-44.023,17.165-110.258,37.46-232.128,43.013c-131.765,6.058-171.345,7.27-505.149,7.27
	C916.296,2274.737,876.716,2273.526,744.951,2267.468 M734.653,7.573C601.575,13.631,510.703,34.733,431.24,65.63
	c-82.189,31.906-151.858,74.717-221.426,144.184C140.347,279.281,97.536,348.95,65.63,431.24
	C34.733,510.703,13.631,601.575,7.573,734.653C1.414,867.932,0,910.541,0,1250s1.414,382.068,7.573,515.347
	c6.058,133.078,27.161,223.95,58.057,303.413c31.906,82.189,74.616,151.959,144.184,221.426
	c69.467,69.467,139.136,112.177,221.426,144.184c79.564,30.897,170.335,51.999,303.413,58.057
	C868.033,2498.485,910.541,2500,1250,2500c339.56,0,382.068-1.414,515.347-7.573c133.078-6.058,223.95-27.161,303.413-58.057
	c82.189-32.007,151.858-74.717,221.426-144.184c69.467-69.467,112.177-139.237,144.184-221.426
	c30.897-79.463,52.1-170.335,58.057-303.413c6.058-133.38,7.472-175.888,7.472-515.347s-1.414-382.068-7.472-515.347
	c-6.058-133.078-27.161-223.95-58.057-303.413c-32.007-82.189-74.717-151.858-144.184-221.426
	c-69.467-69.467-139.237-112.278-221.325-144.184c-79.564-30.897-170.436-52.1-303.413-58.057C1632.169,1.515,1589.56,0,1250.101,0
	C910.541,0,868.033,1.414,734.653,7.573"/>
</svg>
