<?xml version="1.0" encoding="utf-8"?>
<!-- Generator: Adobe Illustrator 17.0.0, SVG Export Plug-In . SVG Version: 6.00 Build 0)  -->
<!DOCTYPE svg PUBLIC "-//W3C//DTD SVG 1.1//EN" "http://www.w3.org/Graphics/SVG/1.1/DTD/svg11.dtd">
<svg version="1.1" id="svg2" xmlns="http://www.w3.org/2000/svg" xmlns:xlink="http://www.w3.org/1999/xlink" x="0px" y="0px"
	 width="2500px" height="2500px" viewBox="0 0 2500 2500" enable-background="new 0 0 2500 2500" xml:space="preserve">
<path id="path2993" d="M1020.833,1822.917c-40.625,0-33.333-15.625-47.917-54.167l-118.75-391.667l737.5-460.417l86.458,22.917
	l-71.875,195.833L1020.833,1822.917z"/>
<path id="path2989" d="M1020.833,1822.917c31.25,0,44.792-14.583,62.5-31.25c27.083-26.042,375-364.583,375-364.583L1244.792,1375
	l-197.917,125l-26.042,312.5V1822.917z"/>
<path id="path2991" fill="#060A24" d="M1041.667,1504.167l504.167,371.875c57.292,31.25,98.958,15.625,113.542-53.125
	l205.208-966.667c20.833-84.375-32.292-121.875-87.5-96.875L572.917,1223.958c-82.292,33.333-81.25,79.167-14.583,98.958
	l309.375,96.875l715.625-451.042c33.333-20.833,64.583-9.375,39.583,13.542L1041.667,1504.167z"/>
</svg>
