<?xml version="1.0" encoding="utf-8"?>
<!-- Generator: Adobe Illustrator 17.0.0, SVG Export Plug-In . SVG Version: 6.00 Build 0)  -->
<!DOCTYPE svg PUBLIC "-//W3C//DTD SVG 1.1//EN" "http://www.w3.org/Graphics/SVG/1.1/DTD/svg11.dtd">
<svg version="1.1" id="Layer_1" xmlns="http://www.w3.org/2000/svg" xmlns:xlink="http://www.w3.org/1999/xlink" x="0px" y="0px"
	 width="300px" height="300px" viewBox="0 0 300 300" enable-background="new 0 0 300 300" xml:space="preserve">
<path fill="#060A24" d="M146.326,121.865c8.233-25.711,18.307-42.373,29.895-54.451c8.643-9.014,13.102-11.876,8.022-1.951
	c2.242-1.799,5.469-4.186,7.972-5.463c14.02-6.612,13.022-1.066,3.367,4.875c26.365-9.43,25.447,2.58-2.426,8.56
	c22.787,0.431,47.026,14.934,53.997,45.782c0.968,4.269-0.184,3.866,4.186,4.638c9.441,1.672,18.316,1.571,26.97-1.179
	c-0.932,6.383-9.364,10.531-22.514,13.268c-4.881,1.015-5.876,0.748-0.033,2.063c7.194,1.618,15.237,2.037,23.743,1.639
	c-6.621,7.624-17.194,11.526-30.251,11.686c-8.171,29.841-26.846,51.206-50.47,64.62c-55.488,31.492-136.262,26.923-176.765-30.313
	c26.584,20.857,65.956,25.453,95.195-3.616c-19.159,0-24.123-14.343-8.931-22.089c-14.385-0.148-23.52-4.697-28.885-12.936
	c-2.04-3.126-2.057-3.367,1.265-5.766c3.649-2.642,8.619-3.815,13.776-4.207c-14.89-4.263-23.984-12.039-27.143-22.469
	c-1.042-3.453-1.205-3.278,2.301-4.165c3.438-0.87,7.856-1.333,11.814-1.532C69.72,101.767,62.734,93.08,60.956,83.47
	c-1.683-9.073,0.056-6.743,6.841-4.145C98.145,90.925,128.414,103.395,146.326,121.865L146.326,121.865z"/>
</svg>
